<mxfile host="app.diagrams.net" modified="2021-12-14T07:26:41.123Z" agent="5.0 (Windows NT 10.0; Win64; x64) AppleWebKit/537.36 (KHTML, like Gecko) Chrome/96.0.4664.93 Safari/537.36" etag="rxrJsmZ16tP3wIjJ5S3w" version="15.9.6" type="github">
  <diagram id="R2lEEEUBdFMjLlhIrx00" name="Page-1">
    <mxGraphModel dx="1730" dy="987" grid="1" gridSize="10" guides="1" tooltips="1" connect="1" arrows="1" fold="1" page="1" pageScale="1" pageWidth="1700" pageHeight="1100" math="0" shadow="0" extFonts="Permanent Marker^https://fonts.googleapis.com/css?family=Permanent+Marker">
      <root>
        <mxCell id="0" />
        <mxCell id="1" parent="0" />
        <mxCell id="SC89Ql17cZj3kVw4EyDL-246" style="edgeStyle=orthogonalEdgeStyle;rounded=0;orthogonalLoop=1;jettySize=auto;html=1;entryX=0.5;entryY=0;entryDx=0;entryDy=0;endArrow=none;endFill=0;" parent="1" source="SC89Ql17cZj3kVw4EyDL-1" target="SC89Ql17cZj3kVw4EyDL-58" edge="1">
          <mxGeometry relative="1" as="geometry" />
        </mxCell>
        <mxCell id="SC89Ql17cZj3kVw4EyDL-1" value="User" style="rounded=0;whiteSpace=wrap;html=1;fillColor=#6a00ff;strokeColor=#3700CC;fontColor=#ffffff;" parent="1" vertex="1">
          <mxGeometry x="995" y="525" width="100" height="50" as="geometry" />
        </mxCell>
        <mxCell id="SC89Ql17cZj3kVw4EyDL-3" style="rounded=0;orthogonalLoop=1;jettySize=auto;html=1;entryX=0.5;entryY=0;entryDx=0;entryDy=0;endArrow=none;endFill=0;" parent="1" source="SC89Ql17cZj3kVw4EyDL-2" target="SC89Ql17cZj3kVw4EyDL-1" edge="1">
          <mxGeometry relative="1" as="geometry" />
        </mxCell>
        <mxCell id="SC89Ql17cZj3kVw4EyDL-5" style="edgeStyle=none;rounded=0;orthogonalLoop=1;jettySize=auto;html=1;entryX=0.5;entryY=1;entryDx=0;entryDy=0;endArrow=none;endFill=0;" parent="1" source="SC89Ql17cZj3kVw4EyDL-2" target="SC89Ql17cZj3kVw4EyDL-4" edge="1">
          <mxGeometry relative="1" as="geometry" />
        </mxCell>
        <mxCell id="SC89Ql17cZj3kVw4EyDL-2" value="Mengupdate" style="rhombus;whiteSpace=wrap;html=1;fillColor=#e1d5e7;strokeColor=#9673a6;" parent="1" vertex="1">
          <mxGeometry x="1000" y="425" width="90" height="70" as="geometry" />
        </mxCell>
        <mxCell id="SC89Ql17cZj3kVw4EyDL-7" style="edgeStyle=none;rounded=0;orthogonalLoop=1;jettySize=auto;html=1;entryX=0;entryY=0.5;entryDx=0;entryDy=0;endArrow=none;endFill=0;" parent="1" source="SC89Ql17cZj3kVw4EyDL-4" target="SC89Ql17cZj3kVw4EyDL-6" edge="1">
          <mxGeometry relative="1" as="geometry" />
        </mxCell>
        <mxCell id="SC89Ql17cZj3kVw4EyDL-9" style="edgeStyle=none;rounded=0;orthogonalLoop=1;jettySize=auto;html=1;entryX=1;entryY=0.5;entryDx=0;entryDy=0;endArrow=none;endFill=0;" parent="1" source="SC89Ql17cZj3kVw4EyDL-4" target="SC89Ql17cZj3kVw4EyDL-8" edge="1">
          <mxGeometry relative="1" as="geometry" />
        </mxCell>
        <mxCell id="SC89Ql17cZj3kVw4EyDL-4" value="Admin" style="rounded=0;whiteSpace=wrap;html=1;fillColor=#6a00ff;strokeColor=#3700CC;fontColor=#ffffff;" parent="1" vertex="1">
          <mxGeometry x="995" y="345" width="100" height="50" as="geometry" />
        </mxCell>
        <mxCell id="SC89Ql17cZj3kVw4EyDL-11" style="edgeStyle=none;rounded=0;orthogonalLoop=1;jettySize=auto;html=1;entryX=0;entryY=0.5;entryDx=0;entryDy=0;endArrow=none;endFill=0;" parent="1" source="SC89Ql17cZj3kVw4EyDL-6" target="SC89Ql17cZj3kVw4EyDL-10" edge="1">
          <mxGeometry relative="1" as="geometry" />
        </mxCell>
        <mxCell id="SC89Ql17cZj3kVw4EyDL-6" value="Membuat" style="rhombus;whiteSpace=wrap;html=1;fillColor=#e1d5e7;strokeColor=#9673a6;" parent="1" vertex="1">
          <mxGeometry x="1135" y="335" width="90" height="70" as="geometry" />
        </mxCell>
        <mxCell id="SC89Ql17cZj3kVw4EyDL-8" value="Membuat" style="rhombus;whiteSpace=wrap;html=1;fillColor=#e1d5e7;strokeColor=#9673a6;" parent="1" vertex="1">
          <mxGeometry x="865" y="335" width="90" height="70" as="geometry" />
        </mxCell>
        <mxCell id="SC89Ql17cZj3kVw4EyDL-10" value="Penginapan" style="rounded=0;whiteSpace=wrap;html=1;fillColor=#6a00ff;strokeColor=#3700CC;fontColor=#ffffff;" parent="1" vertex="1">
          <mxGeometry x="1265" y="345" width="100" height="50" as="geometry" />
        </mxCell>
        <mxCell id="SC89Ql17cZj3kVw4EyDL-13" style="edgeStyle=none;rounded=0;orthogonalLoop=1;jettySize=auto;html=1;entryX=0;entryY=0.5;entryDx=0;entryDy=0;endArrow=none;endFill=0;" parent="1" source="SC89Ql17cZj3kVw4EyDL-12" target="SC89Ql17cZj3kVw4EyDL-8" edge="1">
          <mxGeometry relative="1" as="geometry" />
        </mxCell>
        <mxCell id="SC89Ql17cZj3kVw4EyDL-12" value="Transportasi" style="rounded=0;whiteSpace=wrap;html=1;fillColor=#6a00ff;strokeColor=#3700CC;fontColor=#ffffff;" parent="1" vertex="1">
          <mxGeometry x="725" y="345" width="100" height="50" as="geometry" />
        </mxCell>
        <mxCell id="SC89Ql17cZj3kVw4EyDL-15" style="edgeStyle=none;rounded=0;orthogonalLoop=1;jettySize=auto;html=1;entryX=1;entryY=1;entryDx=0;entryDy=0;endArrow=none;endFill=0;" parent="1" source="SC89Ql17cZj3kVw4EyDL-14" target="SC89Ql17cZj3kVw4EyDL-1" edge="1">
          <mxGeometry relative="1" as="geometry" />
        </mxCell>
        <mxCell id="SC89Ql17cZj3kVw4EyDL-14" value="name" style="ellipse;whiteSpace=wrap;html=1;" parent="1" vertex="1">
          <mxGeometry x="1095" y="605" width="60" height="30" as="geometry" />
        </mxCell>
        <mxCell id="SC89Ql17cZj3kVw4EyDL-17" style="edgeStyle=none;rounded=0;orthogonalLoop=1;jettySize=auto;html=1;exitX=0;exitY=0;exitDx=0;exitDy=0;entryX=1;entryY=1;entryDx=0;entryDy=0;endArrow=none;endFill=0;" parent="1" source="SC89Ql17cZj3kVw4EyDL-16" target="SC89Ql17cZj3kVw4EyDL-1" edge="1">
          <mxGeometry relative="1" as="geometry" />
        </mxCell>
        <mxCell id="SC89Ql17cZj3kVw4EyDL-16" value="email" style="ellipse;whiteSpace=wrap;html=1;" parent="1" vertex="1">
          <mxGeometry x="1115" y="575" width="60" height="30" as="geometry" />
        </mxCell>
        <mxCell id="SC89Ql17cZj3kVw4EyDL-19" style="edgeStyle=none;rounded=0;orthogonalLoop=1;jettySize=auto;html=1;exitX=1;exitY=0;exitDx=0;exitDy=0;entryX=0;entryY=1;entryDx=0;entryDy=0;endArrow=none;endFill=0;" parent="1" source="SC89Ql17cZj3kVw4EyDL-18" target="SC89Ql17cZj3kVw4EyDL-1" edge="1">
          <mxGeometry relative="1" as="geometry" />
        </mxCell>
        <mxCell id="SC89Ql17cZj3kVw4EyDL-18" value="job" style="ellipse;whiteSpace=wrap;html=1;" parent="1" vertex="1">
          <mxGeometry x="935" y="605" width="60" height="30" as="geometry" />
        </mxCell>
        <mxCell id="SC89Ql17cZj3kVw4EyDL-23" style="edgeStyle=none;rounded=0;orthogonalLoop=1;jettySize=auto;html=1;exitX=1;exitY=0;exitDx=0;exitDy=0;endArrow=none;endFill=0;" parent="1" source="SC89Ql17cZj3kVw4EyDL-20" edge="1">
          <mxGeometry relative="1" as="geometry">
            <mxPoint x="995" y="574.8823529411766" as="targetPoint" />
          </mxGeometry>
        </mxCell>
        <mxCell id="SC89Ql17cZj3kVw4EyDL-20" value="image" style="ellipse;whiteSpace=wrap;html=1;" parent="1" vertex="1">
          <mxGeometry x="918" y="574" width="60" height="30" as="geometry" />
        </mxCell>
        <mxCell id="SC89Ql17cZj3kVw4EyDL-25" style="edgeStyle=none;rounded=0;orthogonalLoop=1;jettySize=auto;html=1;exitX=0;exitY=1;exitDx=0;exitDy=0;entryX=1;entryY=0;entryDx=0;entryDy=0;endArrow=none;endFill=0;" parent="1" source="SC89Ql17cZj3kVw4EyDL-24" target="SC89Ql17cZj3kVw4EyDL-1" edge="1">
          <mxGeometry relative="1" as="geometry" />
        </mxCell>
        <mxCell id="SC89Ql17cZj3kVw4EyDL-24" value="password" style="ellipse;whiteSpace=wrap;html=1;" parent="1" vertex="1">
          <mxGeometry x="1095" y="485" width="60" height="30" as="geometry" />
        </mxCell>
        <mxCell id="SC89Ql17cZj3kVw4EyDL-27" style="edgeStyle=none;rounded=0;orthogonalLoop=1;jettySize=auto;html=1;exitX=1;exitY=1;exitDx=0;exitDy=0;entryX=0;entryY=0;entryDx=0;entryDy=0;endArrow=none;endFill=0;" parent="1" source="SC89Ql17cZj3kVw4EyDL-26" target="SC89Ql17cZj3kVw4EyDL-1" edge="1">
          <mxGeometry relative="1" as="geometry" />
        </mxCell>
        <mxCell id="SC89Ql17cZj3kVw4EyDL-26" value="role" style="ellipse;whiteSpace=wrap;html=1;" parent="1" vertex="1">
          <mxGeometry x="935" y="485" width="60" height="30" as="geometry" />
        </mxCell>
        <mxCell id="SC89Ql17cZj3kVw4EyDL-40" style="edgeStyle=none;rounded=0;orthogonalLoop=1;jettySize=auto;html=1;exitX=0.5;exitY=1;exitDx=0;exitDy=0;entryX=1;entryY=0;entryDx=0;entryDy=0;endArrow=none;endFill=0;" parent="1" source="SC89Ql17cZj3kVw4EyDL-28" target="SC89Ql17cZj3kVw4EyDL-4" edge="1">
          <mxGeometry relative="1" as="geometry" />
        </mxCell>
        <mxCell id="SC89Ql17cZj3kVw4EyDL-28" value="password" style="ellipse;whiteSpace=wrap;html=1;" parent="1" vertex="1">
          <mxGeometry x="1075" y="305" width="60" height="30" as="geometry" />
        </mxCell>
        <mxCell id="SC89Ql17cZj3kVw4EyDL-35" style="edgeStyle=none;rounded=0;orthogonalLoop=1;jettySize=auto;html=1;exitX=0;exitY=0.5;exitDx=0;exitDy=0;entryX=1;entryY=1;entryDx=0;entryDy=0;endArrow=none;endFill=0;" parent="1" source="SC89Ql17cZj3kVw4EyDL-29" target="SC89Ql17cZj3kVw4EyDL-4" edge="1">
          <mxGeometry relative="1" as="geometry" />
        </mxCell>
        <mxCell id="SC89Ql17cZj3kVw4EyDL-29" value="email" style="ellipse;whiteSpace=wrap;html=1;" parent="1" vertex="1">
          <mxGeometry x="1105" y="395" width="60" height="30" as="geometry" />
        </mxCell>
        <mxCell id="SC89Ql17cZj3kVw4EyDL-36" style="edgeStyle=none;rounded=0;orthogonalLoop=1;jettySize=auto;html=1;exitX=0;exitY=0;exitDx=0;exitDy=0;endArrow=none;endFill=0;" parent="1" source="SC89Ql17cZj3kVw4EyDL-30" edge="1">
          <mxGeometry relative="1" as="geometry">
            <mxPoint x="1092.8235294117649" y="395" as="targetPoint" />
          </mxGeometry>
        </mxCell>
        <mxCell id="SC89Ql17cZj3kVw4EyDL-30" value="name" style="ellipse;whiteSpace=wrap;html=1;" parent="1" vertex="1">
          <mxGeometry x="1085" y="425" width="60" height="30" as="geometry" />
        </mxCell>
        <mxCell id="SC89Ql17cZj3kVw4EyDL-38" style="edgeStyle=none;rounded=0;orthogonalLoop=1;jettySize=auto;html=1;exitX=1;exitY=0;exitDx=0;exitDy=0;entryX=0;entryY=1;entryDx=0;entryDy=0;endArrow=none;endFill=0;" parent="1" source="SC89Ql17cZj3kVw4EyDL-31" target="SC89Ql17cZj3kVw4EyDL-4" edge="1">
          <mxGeometry relative="1" as="geometry" />
        </mxCell>
        <mxCell id="SC89Ql17cZj3kVw4EyDL-31" value="job" style="ellipse;whiteSpace=wrap;html=1;" parent="1" vertex="1">
          <mxGeometry x="945" y="425" width="60" height="30" as="geometry" />
        </mxCell>
        <mxCell id="SC89Ql17cZj3kVw4EyDL-37" style="edgeStyle=none;rounded=0;orthogonalLoop=1;jettySize=auto;html=1;exitX=1;exitY=0;exitDx=0;exitDy=0;entryX=0;entryY=1;entryDx=0;entryDy=0;endArrow=none;endFill=0;" parent="1" source="SC89Ql17cZj3kVw4EyDL-32" target="SC89Ql17cZj3kVw4EyDL-4" edge="1">
          <mxGeometry relative="1" as="geometry" />
        </mxCell>
        <mxCell id="SC89Ql17cZj3kVw4EyDL-32" value="image" style="ellipse;whiteSpace=wrap;html=1;" parent="1" vertex="1">
          <mxGeometry x="935" y="395" width="60" height="30" as="geometry" />
        </mxCell>
        <mxCell id="SC89Ql17cZj3kVw4EyDL-39" style="edgeStyle=none;rounded=0;orthogonalLoop=1;jettySize=auto;html=1;exitX=0.5;exitY=1;exitDx=0;exitDy=0;entryX=0;entryY=0;entryDx=0;entryDy=0;endArrow=none;endFill=0;" parent="1" source="SC89Ql17cZj3kVw4EyDL-33" target="SC89Ql17cZj3kVw4EyDL-4" edge="1">
          <mxGeometry relative="1" as="geometry" />
        </mxCell>
        <mxCell id="SC89Ql17cZj3kVw4EyDL-33" value="role" style="ellipse;whiteSpace=wrap;html=1;" parent="1" vertex="1">
          <mxGeometry x="955" y="305" width="60" height="30" as="geometry" />
        </mxCell>
        <mxCell id="SC89Ql17cZj3kVw4EyDL-47" style="edgeStyle=none;rounded=0;orthogonalLoop=1;jettySize=auto;html=1;exitX=0;exitY=1;exitDx=0;exitDy=0;entryX=1;entryY=0;entryDx=0;entryDy=0;endArrow=none;endFill=0;" parent="1" edge="1">
          <mxGeometry relative="1" as="geometry">
            <mxPoint x="883" y="690" as="targetPoint" />
          </mxGeometry>
        </mxCell>
        <mxCell id="SC89Ql17cZj3kVw4EyDL-50" style="edgeStyle=none;rounded=0;orthogonalLoop=1;jettySize=auto;html=1;exitX=0;exitY=0;exitDx=0;exitDy=0;entryX=1;entryY=1;entryDx=0;entryDy=0;endArrow=none;endFill=0;" parent="1" edge="1">
          <mxGeometry relative="1" as="geometry">
            <mxPoint x="883" y="740" as="targetPoint" />
          </mxGeometry>
        </mxCell>
        <mxCell id="SC89Ql17cZj3kVw4EyDL-52" style="edgeStyle=none;rounded=0;orthogonalLoop=1;jettySize=auto;html=1;exitX=1;exitY=1;exitDx=0;exitDy=0;entryX=0;entryY=0;entryDx=0;entryDy=0;endArrow=none;endFill=0;" parent="1" edge="1">
          <mxGeometry relative="1" as="geometry">
            <mxPoint x="783" y="690" as="targetPoint" />
          </mxGeometry>
        </mxCell>
        <mxCell id="SC89Ql17cZj3kVw4EyDL-54" style="edgeStyle=none;rounded=0;orthogonalLoop=1;jettySize=auto;html=1;exitX=1;exitY=0;exitDx=0;exitDy=0;entryX=0;entryY=1;entryDx=0;entryDy=0;endArrow=none;endFill=0;" parent="1" edge="1">
          <mxGeometry relative="1" as="geometry">
            <mxPoint x="783" y="740" as="targetPoint" />
          </mxGeometry>
        </mxCell>
        <mxCell id="SC89Ql17cZj3kVw4EyDL-58" value="Mengisi" style="rhombus;whiteSpace=wrap;html=1;fillColor=#e1d5e7;strokeColor=#9673a6;" parent="1" vertex="1">
          <mxGeometry x="1000" y="656" width="90" height="70" as="geometry" />
        </mxCell>
        <mxCell id="SC89Ql17cZj3kVw4EyDL-60" style="rounded=0;orthogonalLoop=1;jettySize=auto;html=1;entryX=0.5;entryY=0;entryDx=0;entryDy=0;endArrow=none;endFill=0;" parent="1" edge="1">
          <mxGeometry relative="1" as="geometry">
            <mxPoint x="1045" y="725" as="sourcePoint" />
            <mxPoint x="1045" y="835" as="targetPoint" />
          </mxGeometry>
        </mxCell>
        <mxCell id="SC89Ql17cZj3kVw4EyDL-109" style="edgeStyle=none;rounded=0;orthogonalLoop=1;jettySize=auto;html=1;exitX=1;exitY=0.5;exitDx=0;exitDy=0;entryX=0;entryY=0.5;entryDx=0;entryDy=0;endArrow=none;endFill=0;" parent="1" source="SC89Ql17cZj3kVw4EyDL-61" target="SC89Ql17cZj3kVw4EyDL-108" edge="1">
          <mxGeometry relative="1" as="geometry" />
        </mxCell>
        <mxCell id="SC89Ql17cZj3kVw4EyDL-61" value="Form Transaksi" style="rounded=0;whiteSpace=wrap;html=1;fillColor=#6a00ff;strokeColor=#3700CC;fontColor=#ffffff;" parent="1" vertex="1">
          <mxGeometry x="995" y="835" width="100" height="50" as="geometry" />
        </mxCell>
        <mxCell id="SC89Ql17cZj3kVw4EyDL-63" value="Memiliki" style="rhombus;whiteSpace=wrap;html=1;fillColor=#e1d5e7;strokeColor=#9673a6;" parent="1" vertex="1">
          <mxGeometry x="730" y="425" width="90" height="70" as="geometry" />
        </mxCell>
        <mxCell id="SC89Ql17cZj3kVw4EyDL-64" style="edgeStyle=none;rounded=0;orthogonalLoop=1;jettySize=auto;html=1;entryX=0.5;entryY=1;entryDx=0;entryDy=0;endArrow=none;endFill=0;" parent="1" source="SC89Ql17cZj3kVw4EyDL-63" edge="1">
          <mxGeometry relative="1" as="geometry">
            <mxPoint x="775" y="395" as="targetPoint" />
          </mxGeometry>
        </mxCell>
        <mxCell id="SC89Ql17cZj3kVw4EyDL-65" value="Memiliki" style="rhombus;whiteSpace=wrap;html=1;fillColor=#e1d5e7;strokeColor=#9673a6;" parent="1" vertex="1">
          <mxGeometry x="1270" y="425" width="90" height="70" as="geometry" />
        </mxCell>
        <mxCell id="SC89Ql17cZj3kVw4EyDL-66" style="edgeStyle=none;rounded=0;orthogonalLoop=1;jettySize=auto;html=1;entryX=0.5;entryY=1;entryDx=0;entryDy=0;endArrow=none;endFill=0;" parent="1" source="SC89Ql17cZj3kVw4EyDL-65" edge="1">
          <mxGeometry relative="1" as="geometry">
            <mxPoint x="1315" y="395" as="targetPoint" />
          </mxGeometry>
        </mxCell>
        <mxCell id="SC89Ql17cZj3kVw4EyDL-74" style="edgeStyle=orthogonalEdgeStyle;rounded=0;orthogonalLoop=1;jettySize=auto;html=1;entryX=1;entryY=0.5;entryDx=0;entryDy=0;endArrow=none;endFill=0;" parent="1" source="SC89Ql17cZj3kVw4EyDL-71" target="SC89Ql17cZj3kVw4EyDL-73" edge="1">
          <mxGeometry relative="1" as="geometry" />
        </mxCell>
        <mxCell id="SC89Ql17cZj3kVw4EyDL-71" value="Mengupdate" style="rhombus;whiteSpace=wrap;html=1;fillColor=#e1d5e7;strokeColor=#9673a6;" parent="1" vertex="1">
          <mxGeometry x="865" y="515" width="90" height="70" as="geometry" />
        </mxCell>
        <mxCell id="SC89Ql17cZj3kVw4EyDL-72" style="edgeStyle=none;rounded=0;orthogonalLoop=1;jettySize=auto;html=1;entryX=1;entryY=0.5;entryDx=0;entryDy=0;endArrow=none;endFill=0;" parent="1" target="SC89Ql17cZj3kVw4EyDL-71" edge="1">
          <mxGeometry relative="1" as="geometry">
            <mxPoint x="995" y="550" as="sourcePoint" />
          </mxGeometry>
        </mxCell>
        <mxCell id="SC89Ql17cZj3kVw4EyDL-75" style="edgeStyle=orthogonalEdgeStyle;rounded=0;orthogonalLoop=1;jettySize=auto;html=1;entryX=0.5;entryY=1;entryDx=0;entryDy=0;endArrow=none;endFill=0;" parent="1" source="SC89Ql17cZj3kVw4EyDL-73" target="SC89Ql17cZj3kVw4EyDL-63" edge="1">
          <mxGeometry relative="1" as="geometry" />
        </mxCell>
        <mxCell id="SC89Ql17cZj3kVw4EyDL-76" style="edgeStyle=orthogonalEdgeStyle;rounded=0;orthogonalLoop=1;jettySize=auto;html=1;entryX=0.5;entryY=1;entryDx=0;entryDy=0;endArrow=none;endFill=0;exitX=0.5;exitY=1;exitDx=0;exitDy=0;" parent="1" source="SC89Ql17cZj3kVw4EyDL-73" target="SC89Ql17cZj3kVw4EyDL-65" edge="1">
          <mxGeometry relative="1" as="geometry">
            <Array as="points">
              <mxPoint x="775" y="655" />
              <mxPoint x="1315" y="655" />
            </Array>
          </mxGeometry>
        </mxCell>
        <mxCell id="SC89Ql17cZj3kVw4EyDL-73" value="Riwayat&lt;br&gt;Transaksi" style="rounded=0;whiteSpace=wrap;html=1;fillColor=#6a00ff;strokeColor=#3700CC;fontColor=#ffffff;" parent="1" vertex="1">
          <mxGeometry x="725" y="525" width="100" height="50" as="geometry" />
        </mxCell>
        <mxCell id="SC89Ql17cZj3kVw4EyDL-79" style="rounded=0;orthogonalLoop=1;jettySize=auto;html=1;exitX=1;exitY=1;exitDx=0;exitDy=0;entryX=0;entryY=0;entryDx=0;entryDy=0;endArrow=none;endFill=0;" parent="1" source="SC89Ql17cZj3kVw4EyDL-77" target="SC89Ql17cZj3kVw4EyDL-12" edge="1">
          <mxGeometry relative="1" as="geometry" />
        </mxCell>
        <mxCell id="SC89Ql17cZj3kVw4EyDL-77" value="image" style="ellipse;whiteSpace=wrap;html=1;" parent="1" vertex="1">
          <mxGeometry x="665" y="305" width="60" height="30" as="geometry" />
        </mxCell>
        <mxCell id="SC89Ql17cZj3kVw4EyDL-80" style="edgeStyle=none;rounded=0;orthogonalLoop=1;jettySize=auto;html=1;exitX=0;exitY=1;exitDx=0;exitDy=0;entryX=1;entryY=0;entryDx=0;entryDy=0;endArrow=none;endFill=0;" parent="1" source="SC89Ql17cZj3kVw4EyDL-78" target="SC89Ql17cZj3kVw4EyDL-12" edge="1">
          <mxGeometry relative="1" as="geometry" />
        </mxCell>
        <mxCell id="SC89Ql17cZj3kVw4EyDL-78" value="company" style="ellipse;whiteSpace=wrap;html=1;" parent="1" vertex="1">
          <mxGeometry x="825" y="305" width="60" height="30" as="geometry" />
        </mxCell>
        <mxCell id="SC89Ql17cZj3kVw4EyDL-82" style="edgeStyle=none;rounded=0;orthogonalLoop=1;jettySize=auto;html=1;exitX=1;exitY=0;exitDx=0;exitDy=0;entryX=0;entryY=1;entryDx=0;entryDy=0;endArrow=none;endFill=0;" parent="1" source="SC89Ql17cZj3kVw4EyDL-81" target="SC89Ql17cZj3kVw4EyDL-12" edge="1">
          <mxGeometry relative="1" as="geometry" />
        </mxCell>
        <mxCell id="SC89Ql17cZj3kVw4EyDL-81" value="type" style="ellipse;whiteSpace=wrap;html=1;" parent="1" vertex="1">
          <mxGeometry x="660" y="395" width="60" height="30" as="geometry" />
        </mxCell>
        <mxCell id="SC89Ql17cZj3kVw4EyDL-85" style="edgeStyle=none;rounded=0;orthogonalLoop=1;jettySize=auto;html=1;exitX=0;exitY=0;exitDx=0;exitDy=0;entryX=1;entryY=1;entryDx=0;entryDy=0;endArrow=none;endFill=0;" parent="1" source="SC89Ql17cZj3kVw4EyDL-83" target="SC89Ql17cZj3kVw4EyDL-12" edge="1">
          <mxGeometry relative="1" as="geometry" />
        </mxCell>
        <mxCell id="SC89Ql17cZj3kVw4EyDL-83" value="status" style="ellipse;whiteSpace=wrap;html=1;" parent="1" vertex="1">
          <mxGeometry x="830" y="395" width="60" height="30" as="geometry" />
        </mxCell>
        <mxCell id="SC89Ql17cZj3kVw4EyDL-88" style="edgeStyle=none;rounded=0;orthogonalLoop=1;jettySize=auto;html=1;exitX=0;exitY=1;exitDx=0;exitDy=0;entryX=0.5;entryY=0;entryDx=0;entryDy=0;endArrow=none;endFill=0;" parent="1" source="SC89Ql17cZj3kVw4EyDL-86" target="SC89Ql17cZj3kVw4EyDL-10" edge="1">
          <mxGeometry relative="1" as="geometry" />
        </mxCell>
        <mxCell id="SC89Ql17cZj3kVw4EyDL-86" value="title" style="ellipse;whiteSpace=wrap;html=1;" parent="1" vertex="1">
          <mxGeometry x="1389" y="305" width="60" height="30" as="geometry" />
        </mxCell>
        <mxCell id="SC89Ql17cZj3kVw4EyDL-90" style="edgeStyle=none;rounded=0;orthogonalLoop=1;jettySize=auto;html=1;exitX=1;exitY=1;exitDx=0;exitDy=0;entryX=0.5;entryY=0;entryDx=0;entryDy=0;endArrow=none;endFill=0;" parent="1" source="SC89Ql17cZj3kVw4EyDL-89" target="SC89Ql17cZj3kVw4EyDL-10" edge="1">
          <mxGeometry relative="1" as="geometry" />
        </mxCell>
        <mxCell id="SC89Ql17cZj3kVw4EyDL-89" value="description" style="ellipse;whiteSpace=wrap;html=1;" parent="1" vertex="1">
          <mxGeometry x="1210" y="305" width="70" height="30" as="geometry" />
        </mxCell>
        <mxCell id="SC89Ql17cZj3kVw4EyDL-105" value="travel_packages_id" style="ellipse;whiteSpace=wrap;html=1;" parent="1" vertex="1">
          <mxGeometry x="1449" y="975" width="115" height="30" as="geometry" />
        </mxCell>
        <mxCell id="SC89Ql17cZj3kVw4EyDL-111" style="edgeStyle=orthogonalEdgeStyle;rounded=0;orthogonalLoop=1;jettySize=auto;html=1;entryX=1;entryY=0.5;entryDx=0;entryDy=0;endArrow=none;endFill=0;exitX=1;exitY=0.5;exitDx=0;exitDy=0;" parent="1" source="SC89Ql17cZj3kVw4EyDL-106" target="SC89Ql17cZj3kVw4EyDL-65" edge="1">
          <mxGeometry relative="1" as="geometry">
            <Array as="points">
              <mxPoint x="1360" y="865" />
              <mxPoint x="1420" y="865" />
              <mxPoint x="1420" y="460" />
            </Array>
          </mxGeometry>
        </mxCell>
        <mxCell id="SC89Ql17cZj3kVw4EyDL-118" style="rounded=0;orthogonalLoop=1;jettySize=auto;html=1;exitX=0.5;exitY=1;exitDx=0;exitDy=0;entryX=0.5;entryY=0;entryDx=0;entryDy=0;endArrow=none;endFill=0;" parent="1" source="SC89Ql17cZj3kVw4EyDL-106" target="SC89Ql17cZj3kVw4EyDL-105" edge="1">
          <mxGeometry relative="1" as="geometry" />
        </mxCell>
        <mxCell id="SC89Ql17cZj3kVw4EyDL-134" style="edgeStyle=none;rounded=0;orthogonalLoop=1;jettySize=auto;html=1;exitX=0.5;exitY=0;exitDx=0;exitDy=0;entryX=0;entryY=1;entryDx=0;entryDy=0;endArrow=none;endFill=0;" parent="1" source="SC89Ql17cZj3kVw4EyDL-106" target="SC89Ql17cZj3kVw4EyDL-133" edge="1">
          <mxGeometry relative="1" as="geometry" />
        </mxCell>
        <mxCell id="SC89Ql17cZj3kVw4EyDL-136" style="edgeStyle=none;rounded=0;orthogonalLoop=1;jettySize=auto;html=1;exitX=0.5;exitY=0;exitDx=0;exitDy=0;entryX=0.5;entryY=1;entryDx=0;entryDy=0;endArrow=none;endFill=0;" parent="1" source="SC89Ql17cZj3kVw4EyDL-106" target="SC89Ql17cZj3kVw4EyDL-135" edge="1">
          <mxGeometry relative="1" as="geometry" />
        </mxCell>
        <mxCell id="SC89Ql17cZj3kVw4EyDL-138" style="edgeStyle=none;rounded=0;orthogonalLoop=1;jettySize=auto;html=1;exitX=0.5;exitY=0;exitDx=0;exitDy=0;entryX=0.5;entryY=1;entryDx=0;entryDy=0;endArrow=none;endFill=0;" parent="1" source="SC89Ql17cZj3kVw4EyDL-106" target="SC89Ql17cZj3kVw4EyDL-137" edge="1">
          <mxGeometry relative="1" as="geometry" />
        </mxCell>
        <mxCell id="SC89Ql17cZj3kVw4EyDL-106" value="Transaksi&lt;br&gt;Penginapan" style="rounded=0;whiteSpace=wrap;html=1;fillColor=#6a00ff;strokeColor=#3700CC;fontColor=#ffffff;" parent="1" vertex="1">
          <mxGeometry x="1260" y="835" width="100" height="50" as="geometry" />
        </mxCell>
        <mxCell id="SC89Ql17cZj3kVw4EyDL-110" style="edgeStyle=none;rounded=0;orthogonalLoop=1;jettySize=auto;html=1;exitX=1;exitY=0.5;exitDx=0;exitDy=0;entryX=0;entryY=0.5;entryDx=0;entryDy=0;endArrow=none;endFill=0;" parent="1" source="SC89Ql17cZj3kVw4EyDL-108" target="SC89Ql17cZj3kVw4EyDL-106" edge="1">
          <mxGeometry relative="1" as="geometry" />
        </mxCell>
        <mxCell id="SC89Ql17cZj3kVw4EyDL-108" value="Membuat" style="rhombus;whiteSpace=wrap;html=1;fillColor=#e1d5e7;strokeColor=#9673a6;" parent="1" vertex="1">
          <mxGeometry x="1135" y="825" width="90" height="70" as="geometry" />
        </mxCell>
        <mxCell id="SC89Ql17cZj3kVw4EyDL-117" style="edgeStyle=orthogonalEdgeStyle;rounded=0;orthogonalLoop=1;jettySize=auto;html=1;entryX=0;entryY=0.5;entryDx=0;entryDy=0;endArrow=none;endFill=0;exitX=0;exitY=0.5;exitDx=0;exitDy=0;" parent="1" source="SC89Ql17cZj3kVw4EyDL-112" target="SC89Ql17cZj3kVw4EyDL-63" edge="1">
          <mxGeometry relative="1" as="geometry">
            <Array as="points">
              <mxPoint x="720" y="865" />
              <mxPoint x="660" y="865" />
              <mxPoint x="660" y="460" />
            </Array>
          </mxGeometry>
        </mxCell>
        <mxCell id="SC89Ql17cZj3kVw4EyDL-112" value="Transaksi&lt;br&gt;Transportasi" style="rounded=0;whiteSpace=wrap;html=1;fillColor=#6a00ff;strokeColor=#3700CC;fontColor=#ffffff;" parent="1" vertex="1">
          <mxGeometry x="720" y="835" width="100" height="50" as="geometry" />
        </mxCell>
        <mxCell id="SC89Ql17cZj3kVw4EyDL-116" style="edgeStyle=orthogonalEdgeStyle;rounded=0;orthogonalLoop=1;jettySize=auto;html=1;exitX=1;exitY=0.5;exitDx=0;exitDy=0;entryX=0;entryY=0.5;entryDx=0;entryDy=0;endArrow=none;endFill=0;" parent="1" source="SC89Ql17cZj3kVw4EyDL-113" target="SC89Ql17cZj3kVw4EyDL-61" edge="1">
          <mxGeometry relative="1" as="geometry" />
        </mxCell>
        <mxCell id="SC89Ql17cZj3kVw4EyDL-113" value="Membuat" style="rhombus;whiteSpace=wrap;html=1;fillColor=#e1d5e7;strokeColor=#9673a6;" parent="1" vertex="1">
          <mxGeometry x="860" y="825" width="90" height="70" as="geometry" />
        </mxCell>
        <mxCell id="SC89Ql17cZj3kVw4EyDL-114" style="edgeStyle=none;rounded=0;orthogonalLoop=1;jettySize=auto;html=1;exitX=1;exitY=0.5;exitDx=0;exitDy=0;entryX=0;entryY=0.5;entryDx=0;entryDy=0;endArrow=none;endFill=0;" parent="1" target="SC89Ql17cZj3kVw4EyDL-113" edge="1">
          <mxGeometry relative="1" as="geometry">
            <mxPoint x="820" y="860" as="sourcePoint" />
          </mxGeometry>
        </mxCell>
        <mxCell id="SC89Ql17cZj3kVw4EyDL-120" style="edgeStyle=none;rounded=0;orthogonalLoop=1;jettySize=auto;html=1;exitX=0.5;exitY=0;exitDx=0;exitDy=0;entryX=0.5;entryY=1;entryDx=0;entryDy=0;endArrow=none;endFill=0;" parent="1" source="SC89Ql17cZj3kVw4EyDL-119" target="SC89Ql17cZj3kVw4EyDL-106" edge="1">
          <mxGeometry relative="1" as="geometry" />
        </mxCell>
        <mxCell id="SC89Ql17cZj3kVw4EyDL-119" value="users_id" style="ellipse;whiteSpace=wrap;html=1;" parent="1" vertex="1">
          <mxGeometry x="1383" y="975" width="60" height="30" as="geometry" />
        </mxCell>
        <mxCell id="SC89Ql17cZj3kVw4EyDL-122" style="edgeStyle=none;rounded=0;orthogonalLoop=1;jettySize=auto;html=1;exitX=0.5;exitY=0;exitDx=0;exitDy=0;entryX=0.5;entryY=1;entryDx=0;entryDy=0;endArrow=none;endFill=0;" parent="1" source="SC89Ql17cZj3kVw4EyDL-121" target="SC89Ql17cZj3kVw4EyDL-106" edge="1">
          <mxGeometry relative="1" as="geometry" />
        </mxCell>
        <mxCell id="SC89Ql17cZj3kVw4EyDL-121" value="transaction_code" style="ellipse;whiteSpace=wrap;html=1;" parent="1" vertex="1">
          <mxGeometry x="1165" y="975" width="100" height="30" as="geometry" />
        </mxCell>
        <mxCell id="SC89Ql17cZj3kVw4EyDL-124" style="edgeStyle=none;rounded=0;orthogonalLoop=1;jettySize=auto;html=1;exitX=0.5;exitY=0;exitDx=0;exitDy=0;entryX=0.5;entryY=1;entryDx=0;entryDy=0;endArrow=none;endFill=0;" parent="1" source="SC89Ql17cZj3kVw4EyDL-123" target="SC89Ql17cZj3kVw4EyDL-106" edge="1">
          <mxGeometry relative="1" as="geometry" />
        </mxCell>
        <mxCell id="SC89Ql17cZj3kVw4EyDL-123" value="type_trip" style="ellipse;whiteSpace=wrap;html=1;" parent="1" vertex="1">
          <mxGeometry x="1100" y="975" width="60" height="30" as="geometry" />
        </mxCell>
        <mxCell id="SC89Ql17cZj3kVw4EyDL-126" style="edgeStyle=none;rounded=0;orthogonalLoop=1;jettySize=auto;html=1;exitX=0;exitY=0.5;exitDx=0;exitDy=0;endArrow=none;endFill=0;" parent="1" source="SC89Ql17cZj3kVw4EyDL-125" edge="1">
          <mxGeometry relative="1" as="geometry">
            <mxPoint x="1310" y="885" as="targetPoint" />
          </mxGeometry>
        </mxCell>
        <mxCell id="SC89Ql17cZj3kVw4EyDL-125" value="payment_type" style="ellipse;whiteSpace=wrap;html=1;" parent="1" vertex="1">
          <mxGeometry x="1440" y="915" width="100" height="30" as="geometry" />
        </mxCell>
        <mxCell id="SC89Ql17cZj3kVw4EyDL-128" style="edgeStyle=none;rounded=0;orthogonalLoop=1;jettySize=auto;html=1;exitX=1;exitY=0.5;exitDx=0;exitDy=0;endArrow=none;endFill=0;" parent="1" source="SC89Ql17cZj3kVw4EyDL-127" edge="1">
          <mxGeometry relative="1" as="geometry">
            <mxPoint x="1310" y="885" as="targetPoint" />
          </mxGeometry>
        </mxCell>
        <mxCell id="SC89Ql17cZj3kVw4EyDL-127" value="transaction_total" style="ellipse;whiteSpace=wrap;html=1;" parent="1" vertex="1">
          <mxGeometry x="1095" y="915" width="100" height="30" as="geometry" />
        </mxCell>
        <mxCell id="SC89Ql17cZj3kVw4EyDL-131" style="edgeStyle=none;rounded=0;orthogonalLoop=1;jettySize=auto;html=1;exitX=0.393;exitY=-0.013;exitDx=0;exitDy=0;entryX=0.5;entryY=1;entryDx=0;entryDy=0;endArrow=none;endFill=0;exitPerimeter=0;" parent="1" source="SC89Ql17cZj3kVw4EyDL-129" target="SC89Ql17cZj3kVw4EyDL-106" edge="1">
          <mxGeometry relative="1" as="geometry" />
        </mxCell>
        <mxCell id="SC89Ql17cZj3kVw4EyDL-129" value="transaction_status" style="ellipse;whiteSpace=wrap;html=1;" parent="1" vertex="1">
          <mxGeometry x="1270" y="975" width="110" height="30" as="geometry" />
        </mxCell>
        <mxCell id="SC89Ql17cZj3kVw4EyDL-133" value="email" style="ellipse;whiteSpace=wrap;html=1;" parent="1" vertex="1">
          <mxGeometry x="1345" y="715" width="60" height="30" as="geometry" />
        </mxCell>
        <mxCell id="SC89Ql17cZj3kVw4EyDL-135" value="name" style="ellipse;whiteSpace=wrap;html=1;" parent="1" vertex="1">
          <mxGeometry x="1305" y="685" width="60" height="30" as="geometry" />
        </mxCell>
        <mxCell id="SC89Ql17cZj3kVw4EyDL-137" value="phone_number" style="ellipse;whiteSpace=wrap;html=1;" parent="1" vertex="1">
          <mxGeometry x="1190" y="715" width="85" height="30" as="geometry" />
        </mxCell>
        <mxCell id="SC89Ql17cZj3kVw4EyDL-140" style="edgeStyle=none;rounded=0;orthogonalLoop=1;jettySize=auto;html=1;exitX=1;exitY=1;exitDx=0;exitDy=0;entryX=0.5;entryY=0;entryDx=0;entryDy=0;endArrow=none;endFill=0;" parent="1" source="SC89Ql17cZj3kVw4EyDL-139" target="SC89Ql17cZj3kVw4EyDL-106" edge="1">
          <mxGeometry relative="1" as="geometry" />
        </mxCell>
        <mxCell id="SC89Ql17cZj3kVw4EyDL-139" value="check_in" style="ellipse;whiteSpace=wrap;html=1;" parent="1" vertex="1">
          <mxGeometry x="1145" y="745" width="60" height="30" as="geometry" />
        </mxCell>
        <mxCell id="SC89Ql17cZj3kVw4EyDL-142" style="edgeStyle=none;rounded=0;orthogonalLoop=1;jettySize=auto;html=1;exitX=0;exitY=1;exitDx=0;exitDy=0;entryX=0.5;entryY=0;entryDx=0;entryDy=0;endArrow=none;endFill=0;" parent="1" source="SC89Ql17cZj3kVw4EyDL-141" target="SC89Ql17cZj3kVw4EyDL-106" edge="1">
          <mxGeometry relative="1" as="geometry" />
        </mxCell>
        <mxCell id="SC89Ql17cZj3kVw4EyDL-141" value="check_out" style="ellipse;whiteSpace=wrap;html=1;" parent="1" vertex="1">
          <mxGeometry x="1345" y="755" width="60" height="30" as="geometry" />
        </mxCell>
        <mxCell id="SC89Ql17cZj3kVw4EyDL-145" style="edgeStyle=none;rounded=0;orthogonalLoop=1;jettySize=auto;html=1;exitX=1;exitY=1;exitDx=0;exitDy=0;entryX=0.5;entryY=0;entryDx=0;entryDy=0;endArrow=none;endFill=0;" parent="1" source="SC89Ql17cZj3kVw4EyDL-144" target="SC89Ql17cZj3kVw4EyDL-106" edge="1">
          <mxGeometry relative="1" as="geometry" />
        </mxCell>
        <mxCell id="SC89Ql17cZj3kVw4EyDL-144" value="rooms" style="ellipse;whiteSpace=wrap;html=1;" parent="1" vertex="1">
          <mxGeometry x="1160" y="785" width="60" height="30" as="geometry" />
        </mxCell>
        <mxCell id="SC89Ql17cZj3kVw4EyDL-147" style="edgeStyle=none;rounded=0;orthogonalLoop=1;jettySize=auto;html=1;exitX=0;exitY=1;exitDx=0;exitDy=0;entryX=0.5;entryY=0;entryDx=0;entryDy=0;endArrow=none;endFill=0;" parent="1" source="SC89Ql17cZj3kVw4EyDL-146" target="SC89Ql17cZj3kVw4EyDL-106" edge="1">
          <mxGeometry relative="1" as="geometry" />
        </mxCell>
        <mxCell id="SC89Ql17cZj3kVw4EyDL-146" value="guests" style="ellipse;whiteSpace=wrap;html=1;" parent="1" vertex="1">
          <mxGeometry x="1345" y="795" width="60" height="30" as="geometry" />
        </mxCell>
        <mxCell id="SC89Ql17cZj3kVw4EyDL-149" style="edgeStyle=none;rounded=0;orthogonalLoop=1;jettySize=auto;html=1;exitX=0.5;exitY=1;exitDx=0;exitDy=0;entryX=0.5;entryY=0;entryDx=0;entryDy=0;endArrow=none;endFill=0;" parent="1" source="SC89Ql17cZj3kVw4EyDL-148" target="SC89Ql17cZj3kVw4EyDL-106" edge="1">
          <mxGeometry relative="1" as="geometry" />
        </mxCell>
        <mxCell id="SC89Ql17cZj3kVw4EyDL-148" value="duration" style="ellipse;whiteSpace=wrap;html=1;" parent="1" vertex="1">
          <mxGeometry x="1247.5" y="675" width="57.5" height="30" as="geometry" />
        </mxCell>
        <mxCell id="SC89Ql17cZj3kVw4EyDL-150" value="transportations_id" style="ellipse;whiteSpace=wrap;html=1;" parent="1" vertex="1">
          <mxGeometry x="914" y="975" width="115" height="30" as="geometry" />
        </mxCell>
        <mxCell id="SC89Ql17cZj3kVw4EyDL-151" style="rounded=0;orthogonalLoop=1;jettySize=auto;html=1;exitX=0.5;exitY=1;exitDx=0;exitDy=0;entryX=0.5;entryY=0;entryDx=0;entryDy=0;endArrow=none;endFill=0;" parent="1" target="SC89Ql17cZj3kVw4EyDL-150" edge="1">
          <mxGeometry relative="1" as="geometry">
            <mxPoint x="775" y="885" as="sourcePoint" />
          </mxGeometry>
        </mxCell>
        <mxCell id="SC89Ql17cZj3kVw4EyDL-152" style="edgeStyle=none;rounded=0;orthogonalLoop=1;jettySize=auto;html=1;exitX=0.5;exitY=0;exitDx=0;exitDy=0;entryX=0;entryY=1;entryDx=0;entryDy=0;endArrow=none;endFill=0;" parent="1" target="SC89Ql17cZj3kVw4EyDL-167" edge="1">
          <mxGeometry relative="1" as="geometry">
            <mxPoint x="775" y="835" as="sourcePoint" />
          </mxGeometry>
        </mxCell>
        <mxCell id="SC89Ql17cZj3kVw4EyDL-153" style="edgeStyle=none;rounded=0;orthogonalLoop=1;jettySize=auto;html=1;exitX=0.5;exitY=0;exitDx=0;exitDy=0;entryX=0.5;entryY=1;entryDx=0;entryDy=0;endArrow=none;endFill=0;" parent="1" target="SC89Ql17cZj3kVw4EyDL-168" edge="1">
          <mxGeometry relative="1" as="geometry">
            <mxPoint x="775" y="835" as="sourcePoint" />
          </mxGeometry>
        </mxCell>
        <mxCell id="SC89Ql17cZj3kVw4EyDL-154" style="edgeStyle=none;rounded=0;orthogonalLoop=1;jettySize=auto;html=1;exitX=0.5;exitY=0;exitDx=0;exitDy=0;entryX=0.5;entryY=1;entryDx=0;entryDy=0;endArrow=none;endFill=0;" parent="1" target="SC89Ql17cZj3kVw4EyDL-169" edge="1">
          <mxGeometry relative="1" as="geometry">
            <mxPoint x="775" y="835" as="sourcePoint" />
          </mxGeometry>
        </mxCell>
        <mxCell id="SC89Ql17cZj3kVw4EyDL-155" style="edgeStyle=none;rounded=0;orthogonalLoop=1;jettySize=auto;html=1;exitX=0.5;exitY=0;exitDx=0;exitDy=0;entryX=0.5;entryY=1;entryDx=0;entryDy=0;endArrow=none;endFill=0;" parent="1" source="SC89Ql17cZj3kVw4EyDL-156" edge="1">
          <mxGeometry relative="1" as="geometry">
            <mxPoint x="775" y="885" as="targetPoint" />
          </mxGeometry>
        </mxCell>
        <mxCell id="SC89Ql17cZj3kVw4EyDL-156" value="users_id" style="ellipse;whiteSpace=wrap;html=1;" parent="1" vertex="1">
          <mxGeometry x="848" y="975" width="60" height="30" as="geometry" />
        </mxCell>
        <mxCell id="SC89Ql17cZj3kVw4EyDL-157" style="edgeStyle=none;rounded=0;orthogonalLoop=1;jettySize=auto;html=1;exitX=0.5;exitY=0;exitDx=0;exitDy=0;entryX=0.5;entryY=1;entryDx=0;entryDy=0;endArrow=none;endFill=0;" parent="1" source="SC89Ql17cZj3kVw4EyDL-158" edge="1">
          <mxGeometry relative="1" as="geometry">
            <mxPoint x="775" y="885" as="targetPoint" />
          </mxGeometry>
        </mxCell>
        <mxCell id="SC89Ql17cZj3kVw4EyDL-158" value="transaction_code" style="ellipse;whiteSpace=wrap;html=1;" parent="1" vertex="1">
          <mxGeometry x="630" y="975" width="100" height="30" as="geometry" />
        </mxCell>
        <mxCell id="SC89Ql17cZj3kVw4EyDL-159" style="edgeStyle=none;rounded=0;orthogonalLoop=1;jettySize=auto;html=1;exitX=0.5;exitY=0;exitDx=0;exitDy=0;entryX=0.5;entryY=1;entryDx=0;entryDy=0;endArrow=none;endFill=0;" parent="1" source="SC89Ql17cZj3kVw4EyDL-160" edge="1">
          <mxGeometry relative="1" as="geometry">
            <mxPoint x="775" y="885" as="targetPoint" />
          </mxGeometry>
        </mxCell>
        <mxCell id="SC89Ql17cZj3kVw4EyDL-160" value="class" style="ellipse;whiteSpace=wrap;html=1;" parent="1" vertex="1">
          <mxGeometry x="565" y="975" width="60" height="30" as="geometry" />
        </mxCell>
        <mxCell id="SC89Ql17cZj3kVw4EyDL-161" style="edgeStyle=none;rounded=0;orthogonalLoop=1;jettySize=auto;html=1;exitX=0;exitY=0.5;exitDx=0;exitDy=0;endArrow=none;endFill=0;" parent="1" source="SC89Ql17cZj3kVw4EyDL-162" edge="1">
          <mxGeometry relative="1" as="geometry">
            <mxPoint x="775" y="885" as="targetPoint" />
          </mxGeometry>
        </mxCell>
        <mxCell id="SC89Ql17cZj3kVw4EyDL-162" value="payment_type" style="ellipse;whiteSpace=wrap;html=1;" parent="1" vertex="1">
          <mxGeometry x="905" y="915" width="100" height="30" as="geometry" />
        </mxCell>
        <mxCell id="SC89Ql17cZj3kVw4EyDL-163" style="edgeStyle=none;rounded=0;orthogonalLoop=1;jettySize=auto;html=1;exitX=1;exitY=0.5;exitDx=0;exitDy=0;endArrow=none;endFill=0;" parent="1" source="SC89Ql17cZj3kVw4EyDL-164" edge="1">
          <mxGeometry relative="1" as="geometry">
            <mxPoint x="775" y="885" as="targetPoint" />
          </mxGeometry>
        </mxCell>
        <mxCell id="SC89Ql17cZj3kVw4EyDL-164" value="transaction_total" style="ellipse;whiteSpace=wrap;html=1;" parent="1" vertex="1">
          <mxGeometry x="560" y="915" width="100" height="30" as="geometry" />
        </mxCell>
        <mxCell id="SC89Ql17cZj3kVw4EyDL-165" style="edgeStyle=none;rounded=0;orthogonalLoop=1;jettySize=auto;html=1;exitX=0.393;exitY=-0.013;exitDx=0;exitDy=0;entryX=0.5;entryY=1;entryDx=0;entryDy=0;endArrow=none;endFill=0;exitPerimeter=0;" parent="1" source="SC89Ql17cZj3kVw4EyDL-166" edge="1">
          <mxGeometry relative="1" as="geometry">
            <mxPoint x="775" y="885" as="targetPoint" />
          </mxGeometry>
        </mxCell>
        <mxCell id="SC89Ql17cZj3kVw4EyDL-166" value="transaction_status" style="ellipse;whiteSpace=wrap;html=1;" parent="1" vertex="1">
          <mxGeometry x="735" y="975" width="110" height="30" as="geometry" />
        </mxCell>
        <mxCell id="SC89Ql17cZj3kVw4EyDL-167" value="email" style="ellipse;whiteSpace=wrap;html=1;" parent="1" vertex="1">
          <mxGeometry x="830" y="715" width="60" height="30" as="geometry" />
        </mxCell>
        <mxCell id="SC89Ql17cZj3kVw4EyDL-168" value="name" style="ellipse;whiteSpace=wrap;html=1;" parent="1" vertex="1">
          <mxGeometry x="805" y="676" width="60" height="30" as="geometry" />
        </mxCell>
        <mxCell id="SC89Ql17cZj3kVw4EyDL-169" value="phone_number" style="ellipse;whiteSpace=wrap;html=1;" parent="1" vertex="1">
          <mxGeometry x="671" y="718" width="87" height="30" as="geometry" />
        </mxCell>
        <mxCell id="SC89Ql17cZj3kVw4EyDL-170" style="edgeStyle=none;rounded=0;orthogonalLoop=1;jettySize=auto;html=1;exitX=1;exitY=1;exitDx=0;exitDy=0;entryX=0.5;entryY=0;entryDx=0;entryDy=0;endArrow=none;endFill=0;" parent="1" source="SC89Ql17cZj3kVw4EyDL-171" edge="1">
          <mxGeometry relative="1" as="geometry">
            <mxPoint x="775" y="835" as="targetPoint" />
          </mxGeometry>
        </mxCell>
        <mxCell id="SC89Ql17cZj3kVw4EyDL-171" value="from" style="ellipse;whiteSpace=wrap;html=1;" parent="1" vertex="1">
          <mxGeometry x="665" y="755" width="60" height="30" as="geometry" />
        </mxCell>
        <mxCell id="SC89Ql17cZj3kVw4EyDL-172" style="edgeStyle=none;rounded=0;orthogonalLoop=1;jettySize=auto;html=1;exitX=0;exitY=1;exitDx=0;exitDy=0;entryX=0.5;entryY=0;entryDx=0;entryDy=0;endArrow=none;endFill=0;" parent="1" source="SC89Ql17cZj3kVw4EyDL-173" edge="1">
          <mxGeometry relative="1" as="geometry">
            <mxPoint x="775" y="835" as="targetPoint" />
          </mxGeometry>
        </mxCell>
        <mxCell id="SC89Ql17cZj3kVw4EyDL-173" value="to" style="ellipse;whiteSpace=wrap;html=1;" parent="1" vertex="1">
          <mxGeometry x="890" y="748" width="60" height="30" as="geometry" />
        </mxCell>
        <mxCell id="SC89Ql17cZj3kVw4EyDL-174" style="edgeStyle=none;rounded=0;orthogonalLoop=1;jettySize=auto;html=1;exitX=1;exitY=1;exitDx=0;exitDy=0;entryX=0.5;entryY=0;entryDx=0;entryDy=0;endArrow=none;endFill=0;" parent="1" source="SC89Ql17cZj3kVw4EyDL-175" edge="1">
          <mxGeometry relative="1" as="geometry">
            <mxPoint x="775" y="835" as="targetPoint" />
          </mxGeometry>
        </mxCell>
        <mxCell id="SC89Ql17cZj3kVw4EyDL-175" value="guests" style="ellipse;whiteSpace=wrap;html=1;" parent="1" vertex="1">
          <mxGeometry x="665" y="795" width="60" height="30" as="geometry" />
        </mxCell>
        <mxCell id="SC89Ql17cZj3kVw4EyDL-176" style="edgeStyle=none;rounded=0;orthogonalLoop=1;jettySize=auto;html=1;exitX=0;exitY=1;exitDx=0;exitDy=0;entryX=0.5;entryY=0;entryDx=0;entryDy=0;endArrow=none;endFill=0;" parent="1" source="SC89Ql17cZj3kVw4EyDL-177" edge="1">
          <mxGeometry relative="1" as="geometry">
            <mxPoint x="775" y="835" as="targetPoint" />
          </mxGeometry>
        </mxCell>
        <mxCell id="SC89Ql17cZj3kVw4EyDL-177" value="departure_date" style="ellipse;whiteSpace=wrap;html=1;" parent="1" vertex="1">
          <mxGeometry x="875" y="785" width="95" height="30" as="geometry" />
        </mxCell>
        <mxCell id="SC89Ql17cZj3kVw4EyDL-178" style="edgeStyle=none;rounded=0;orthogonalLoop=1;jettySize=auto;html=1;exitX=0.5;exitY=1;exitDx=0;exitDy=0;entryX=0.5;entryY=0;entryDx=0;entryDy=0;endArrow=none;endFill=0;" parent="1" source="SC89Ql17cZj3kVw4EyDL-179" edge="1">
          <mxGeometry relative="1" as="geometry">
            <mxPoint x="775" y="835" as="targetPoint" />
          </mxGeometry>
        </mxCell>
        <mxCell id="SC89Ql17cZj3kVw4EyDL-179" value="departure_time" style="ellipse;whiteSpace=wrap;html=1;" parent="1" vertex="1">
          <mxGeometry x="712" y="676" width="90" height="30" as="geometry" />
        </mxCell>
        <mxCell id="SC89Ql17cZj3kVw4EyDL-208" style="edgeStyle=none;rounded=0;orthogonalLoop=1;jettySize=auto;html=1;exitX=0.5;exitY=0;exitDx=0;exitDy=0;entryX=1;entryY=1;entryDx=0;entryDy=0;endArrow=none;endFill=0;" parent="1" source="SC89Ql17cZj3kVw4EyDL-199" target="SC89Ql17cZj3kVw4EyDL-10" edge="1">
          <mxGeometry relative="1" as="geometry" />
        </mxCell>
        <mxCell id="SC89Ql17cZj3kVw4EyDL-199" value="location" style="ellipse;whiteSpace=wrap;html=1;" parent="1" vertex="1">
          <mxGeometry x="1342" y="415" width="60" height="30" as="geometry" />
        </mxCell>
        <mxCell id="SC89Ql17cZj3kVw4EyDL-202" style="edgeStyle=none;rounded=0;orthogonalLoop=1;jettySize=auto;html=1;exitX=1;exitY=0;exitDx=0;exitDy=0;entryX=0;entryY=1;entryDx=0;entryDy=0;endArrow=none;endFill=0;" parent="1" source="SC89Ql17cZj3kVw4EyDL-201" target="SC89Ql17cZj3kVw4EyDL-10" edge="1">
          <mxGeometry relative="1" as="geometry" />
        </mxCell>
        <mxCell id="SC89Ql17cZj3kVw4EyDL-201" value="facilities" style="ellipse;whiteSpace=wrap;html=1;" parent="1" vertex="1">
          <mxGeometry x="1200" y="395" width="60" height="30" as="geometry" />
        </mxCell>
        <mxCell id="SC89Ql17cZj3kVw4EyDL-210" style="edgeStyle=none;rounded=0;orthogonalLoop=1;jettySize=auto;html=1;exitX=0;exitY=0;exitDx=0;exitDy=0;entryX=1;entryY=1;entryDx=0;entryDy=0;endArrow=none;endFill=0;" parent="1" source="SC89Ql17cZj3kVw4EyDL-205" target="SC89Ql17cZj3kVw4EyDL-10" edge="1">
          <mxGeometry relative="1" as="geometry" />
        </mxCell>
        <mxCell id="SC89Ql17cZj3kVw4EyDL-205" value="rating" style="ellipse;whiteSpace=wrap;html=1;" parent="1" vertex="1">
          <mxGeometry x="1410" y="415" width="60" height="30" as="geometry" />
        </mxCell>
        <mxCell id="SC89Ql17cZj3kVw4EyDL-214" style="edgeStyle=none;rounded=0;orthogonalLoop=1;jettySize=auto;html=1;entryX=0;entryY=0.5;entryDx=0;entryDy=0;endArrow=none;endFill=0;" parent="1" source="SC89Ql17cZj3kVw4EyDL-216" target="SC89Ql17cZj3kVw4EyDL-217" edge="1">
          <mxGeometry relative="1" as="geometry">
            <mxPoint x="1535" y="370" as="targetPoint" />
          </mxGeometry>
        </mxCell>
        <mxCell id="SC89Ql17cZj3kVw4EyDL-215" style="edgeStyle=none;rounded=0;orthogonalLoop=1;jettySize=auto;html=1;entryX=0;entryY=0.5;entryDx=0;entryDy=0;endArrow=none;endFill=0;" parent="1" target="SC89Ql17cZj3kVw4EyDL-216" edge="1">
          <mxGeometry relative="1" as="geometry">
            <mxPoint x="1365" y="370" as="sourcePoint" />
          </mxGeometry>
        </mxCell>
        <mxCell id="SC89Ql17cZj3kVw4EyDL-216" value="Memiliki" style="rhombus;whiteSpace=wrap;html=1;fillColor=#e1d5e7;strokeColor=#9673a6;" parent="1" vertex="1">
          <mxGeometry x="1405" y="335" width="90" height="70" as="geometry" />
        </mxCell>
        <mxCell id="SC89Ql17cZj3kVw4EyDL-217" value="Galeri" style="rounded=0;whiteSpace=wrap;html=1;fillColor=#6a00ff;strokeColor=#3700CC;fontColor=#ffffff;" parent="1" vertex="1">
          <mxGeometry x="1540" y="345" width="92" height="50" as="geometry" />
        </mxCell>
        <mxCell id="SC89Ql17cZj3kVw4EyDL-219" style="edgeStyle=none;rounded=0;orthogonalLoop=1;jettySize=auto;html=1;exitX=0.5;exitY=1;exitDx=0;exitDy=0;entryX=0.5;entryY=0;entryDx=0;entryDy=0;endArrow=none;endFill=0;" parent="1" source="SC89Ql17cZj3kVw4EyDL-218" target="SC89Ql17cZj3kVw4EyDL-217" edge="1">
          <mxGeometry relative="1" as="geometry" />
        </mxCell>
        <mxCell id="SC89Ql17cZj3kVw4EyDL-218" value="travel_packages_id" style="ellipse;whiteSpace=wrap;html=1;" parent="1" vertex="1">
          <mxGeometry x="1482" y="275" width="115" height="30" as="geometry" />
        </mxCell>
        <mxCell id="SC89Ql17cZj3kVw4EyDL-221" style="edgeStyle=none;rounded=0;orthogonalLoop=1;jettySize=auto;html=1;exitX=0.5;exitY=1;exitDx=0;exitDy=0;entryX=0.5;entryY=0;entryDx=0;entryDy=0;endArrow=none;endFill=0;" parent="1" source="SC89Ql17cZj3kVw4EyDL-220" target="SC89Ql17cZj3kVw4EyDL-217" edge="1">
          <mxGeometry relative="1" as="geometry" />
        </mxCell>
        <mxCell id="SC89Ql17cZj3kVw4EyDL-220" value="image" style="ellipse;whiteSpace=wrap;html=1;" parent="1" vertex="1">
          <mxGeometry x="1602" y="275" width="60" height="30" as="geometry" />
        </mxCell>
        <mxCell id="SC89Ql17cZj3kVw4EyDL-225" style="edgeStyle=orthogonalEdgeStyle;rounded=0;orthogonalLoop=1;jettySize=auto;html=1;entryX=1;entryY=0.5;entryDx=0;entryDy=0;endArrow=none;endFill=0;" parent="1" source="SC89Ql17cZj3kVw4EyDL-226" edge="1">
          <mxGeometry relative="1" as="geometry">
            <mxPoint x="1095" y="550" as="targetPoint" />
          </mxGeometry>
        </mxCell>
        <mxCell id="SC89Ql17cZj3kVw4EyDL-244" style="edgeStyle=none;rounded=0;orthogonalLoop=1;jettySize=auto;html=1;exitX=0.5;exitY=1;exitDx=0;exitDy=0;entryX=0.5;entryY=0;entryDx=0;entryDy=0;endArrow=none;endFill=0;" parent="1" source="SC89Ql17cZj3kVw4EyDL-226" target="SC89Ql17cZj3kVw4EyDL-106" edge="1">
          <mxGeometry relative="1" as="geometry" />
        </mxCell>
        <mxCell id="SC89Ql17cZj3kVw4EyDL-248" style="edgeStyle=none;rounded=0;orthogonalLoop=1;jettySize=auto;html=1;exitX=0;exitY=0.5;exitDx=0;exitDy=0;endArrow=none;endFill=0;" parent="1" source="SC89Ql17cZj3kVw4EyDL-226" edge="1">
          <mxGeometry relative="1" as="geometry">
            <mxPoint x="772" y="835" as="targetPoint" />
          </mxGeometry>
        </mxCell>
        <mxCell id="SC89Ql17cZj3kVw4EyDL-226" value="Memiliki" style="rhombus;whiteSpace=wrap;html=1;fillColor=#e1d5e7;strokeColor=#9673a6;" parent="1" vertex="1">
          <mxGeometry x="1135" y="515" width="90" height="70" as="geometry" />
        </mxCell>
        <mxCell id="SC89Ql17cZj3kVw4EyDL-228" style="edgeStyle=none;rounded=0;orthogonalLoop=1;jettySize=auto;html=1;exitX=1;exitY=0;exitDx=0;exitDy=0;entryX=0;entryY=1;entryDx=0;entryDy=0;endArrow=none;endFill=0;" parent="1" source="SC89Ql17cZj3kVw4EyDL-227" target="SC89Ql17cZj3kVw4EyDL-10" edge="1">
          <mxGeometry relative="1" as="geometry" />
        </mxCell>
        <mxCell id="SC89Ql17cZj3kVw4EyDL-227" value="price" style="ellipse;whiteSpace=wrap;html=1;" parent="1" vertex="1">
          <mxGeometry x="1205" y="435" width="60" height="30" as="geometry" />
        </mxCell>
        <mxCell id="SC89Ql17cZj3kVw4EyDL-230" style="rounded=0;orthogonalLoop=1;jettySize=auto;html=1;entryX=0.5;entryY=0;entryDx=0;entryDy=0;endArrow=none;endFill=0;" parent="1" source="SC89Ql17cZj3kVw4EyDL-231" edge="1">
          <mxGeometry relative="1" as="geometry">
            <mxPoint x="1317" y="345" as="targetPoint" />
          </mxGeometry>
        </mxCell>
        <mxCell id="SC89Ql17cZj3kVw4EyDL-231" value="Memiliki" style="rhombus;whiteSpace=wrap;html=1;fillColor=#e1d5e7;strokeColor=#9673a6;" parent="1" vertex="1">
          <mxGeometry x="1272" y="245" width="90" height="70" as="geometry" />
        </mxCell>
        <mxCell id="SC89Ql17cZj3kVw4EyDL-232" style="edgeStyle=none;rounded=0;orthogonalLoop=1;jettySize=auto;html=1;entryX=0.5;entryY=1;entryDx=0;entryDy=0;endArrow=none;endFill=0;" parent="1" source="SC89Ql17cZj3kVw4EyDL-231" edge="1">
          <mxGeometry relative="1" as="geometry">
            <mxPoint x="1317" y="215" as="targetPoint" />
          </mxGeometry>
        </mxCell>
        <mxCell id="SC89Ql17cZj3kVw4EyDL-233" value="Testimoni" style="rounded=0;whiteSpace=wrap;html=1;fillColor=#6a00ff;strokeColor=#3700CC;fontColor=#ffffff;" parent="1" vertex="1">
          <mxGeometry x="1267" y="165" width="100" height="50" as="geometry" />
        </mxCell>
        <mxCell id="SC89Ql17cZj3kVw4EyDL-234" value="travel_packages_id" style="ellipse;whiteSpace=wrap;html=1;" parent="1" vertex="1">
          <mxGeometry x="1367" y="125" width="115" height="30" as="geometry" />
        </mxCell>
        <mxCell id="SC89Ql17cZj3kVw4EyDL-235" style="edgeStyle=none;rounded=0;orthogonalLoop=1;jettySize=auto;html=1;exitX=0;exitY=1;exitDx=0;exitDy=0;entryX=0.5;entryY=0;entryDx=0;entryDy=0;endArrow=none;endFill=0;" parent="1" source="SC89Ql17cZj3kVw4EyDL-234" target="SC89Ql17cZj3kVw4EyDL-233" edge="1">
          <mxGeometry relative="1" as="geometry" />
        </mxCell>
        <mxCell id="SC89Ql17cZj3kVw4EyDL-236" style="edgeStyle=none;rounded=0;orthogonalLoop=1;jettySize=auto;html=1;exitX=0.5;exitY=0;exitDx=0;exitDy=0;entryX=0.5;entryY=1;entryDx=0;entryDy=0;endArrow=none;endFill=0;" parent="1" source="SC89Ql17cZj3kVw4EyDL-233" target="SC89Ql17cZj3kVw4EyDL-241" edge="1">
          <mxGeometry relative="1" as="geometry" />
        </mxCell>
        <mxCell id="SC89Ql17cZj3kVw4EyDL-237" style="edgeStyle=none;rounded=0;orthogonalLoop=1;jettySize=auto;html=1;exitX=0.5;exitY=1;exitDx=0;exitDy=0;entryX=0.5;entryY=0;entryDx=0;entryDy=0;endArrow=none;endFill=0;" parent="1" source="SC89Ql17cZj3kVw4EyDL-240" target="SC89Ql17cZj3kVw4EyDL-233" edge="1">
          <mxGeometry relative="1" as="geometry" />
        </mxCell>
        <mxCell id="SC89Ql17cZj3kVw4EyDL-238" style="edgeStyle=none;rounded=0;orthogonalLoop=1;jettySize=auto;html=1;exitX=1;exitY=1;exitDx=0;exitDy=0;entryX=0.5;entryY=0;entryDx=0;entryDy=0;endArrow=none;endFill=0;" parent="1" source="SC89Ql17cZj3kVw4EyDL-239" target="SC89Ql17cZj3kVw4EyDL-233" edge="1">
          <mxGeometry relative="1" as="geometry" />
        </mxCell>
        <mxCell id="SC89Ql17cZj3kVw4EyDL-239" value="description" style="ellipse;whiteSpace=wrap;html=1;" parent="1" vertex="1">
          <mxGeometry x="1199" y="125" width="73" height="30" as="geometry" />
        </mxCell>
        <mxCell id="SC89Ql17cZj3kVw4EyDL-240" value="rating" style="ellipse;whiteSpace=wrap;html=1;" parent="1" vertex="1">
          <mxGeometry x="1257" y="95" width="60" height="30" as="geometry" />
        </mxCell>
        <mxCell id="SC89Ql17cZj3kVw4EyDL-241" value="users_id" style="ellipse;whiteSpace=wrap;html=1;" parent="1" vertex="1">
          <mxGeometry x="1326.5" y="95" width="60" height="30" as="geometry" />
        </mxCell>
        <mxCell id="Tt2xpURzv-KkRXz8kbXv-1" value="Normalisasi Pertama (1NF)" style="swimlane;fontSize=16;startSize=23;" parent="1" vertex="1">
          <mxGeometry y="10" width="360" height="830" as="geometry">
            <mxRectangle y="10" width="240" height="23" as="alternateBounds" />
          </mxGeometry>
        </mxCell>
        <mxCell id="Tt2xpURzv-KkRXz8kbXv-2" value="&lt;font style=&quot;font-size: 14px&quot;&gt;id users*&lt;/font&gt;" style="text;html=1;align=center;verticalAlign=middle;resizable=0;points=[];autosize=1;strokeColor=none;fillColor=none;fontSize=14;" parent="Tt2xpURzv-KkRXz8kbXv-1" vertex="1">
          <mxGeometry x="77.5" y="40" width="70" height="20" as="geometry" />
        </mxCell>
        <mxCell id="Tt2xpURzv-KkRXz8kbXv-3" value="&lt;font style=&quot;font-size: 14px&quot;&gt;name&lt;/font&gt;" style="text;html=1;align=center;verticalAlign=middle;resizable=0;points=[];autosize=1;strokeColor=none;fillColor=none;fontSize=14;" parent="Tt2xpURzv-KkRXz8kbXv-1" vertex="1">
          <mxGeometry x="87.5" y="60" width="50" height="20" as="geometry" />
        </mxCell>
        <mxCell id="Tt2xpURzv-KkRXz8kbXv-6" value="&lt;font style=&quot;font-size: 14px&quot;&gt;email&lt;/font&gt;" style="text;html=1;align=center;verticalAlign=middle;resizable=0;points=[];autosize=1;strokeColor=none;fillColor=none;fontSize=14;" parent="Tt2xpURzv-KkRXz8kbXv-1" vertex="1">
          <mxGeometry x="87.5" y="80" width="50" height="20" as="geometry" />
        </mxCell>
        <mxCell id="Tt2xpURzv-KkRXz8kbXv-7" value="&lt;font style=&quot;font-size: 14px&quot;&gt;job&lt;/font&gt;" style="text;html=1;align=center;verticalAlign=middle;resizable=0;points=[];autosize=1;strokeColor=none;fillColor=none;fontSize=14;" parent="Tt2xpURzv-KkRXz8kbXv-1" vertex="1">
          <mxGeometry x="97.5" y="100" width="30" height="20" as="geometry" />
        </mxCell>
        <mxCell id="Tt2xpURzv-KkRXz8kbXv-8" value="image" style="text;html=1;align=center;verticalAlign=middle;resizable=0;points=[];autosize=1;strokeColor=none;fillColor=none;fontSize=14;" parent="Tt2xpURzv-KkRXz8kbXv-1" vertex="1">
          <mxGeometry x="87.5" y="120" width="50" height="20" as="geometry" />
        </mxCell>
        <mxCell id="Tt2xpURzv-KkRXz8kbXv-9" value="password" style="text;html=1;align=center;verticalAlign=middle;resizable=0;points=[];autosize=1;strokeColor=none;fillColor=none;fontSize=14;" parent="Tt2xpURzv-KkRXz8kbXv-1" vertex="1">
          <mxGeometry x="72.5" y="140" width="80" height="20" as="geometry" />
        </mxCell>
        <mxCell id="Tt2xpURzv-KkRXz8kbXv-10" value="role" style="text;html=1;align=center;verticalAlign=middle;resizable=0;points=[];autosize=1;strokeColor=none;fillColor=none;fontSize=14;" parent="Tt2xpURzv-KkRXz8kbXv-1" vertex="1">
          <mxGeometry x="92.5" y="160" width="40" height="20" as="geometry" />
        </mxCell>
        <mxCell id="Tt2xpURzv-KkRXz8kbXv-11" value="&lt;font style=&quot;font-size: 14px&quot;&gt;id transportations*&lt;/font&gt;" style="text;html=1;align=center;verticalAlign=middle;resizable=0;points=[];autosize=1;strokeColor=none;fillColor=none;fontSize=14;" parent="Tt2xpURzv-KkRXz8kbXv-1" vertex="1">
          <mxGeometry x="187.5" y="40" width="130" height="20" as="geometry" />
        </mxCell>
        <mxCell id="Tt2xpURzv-KkRXz8kbXv-12" value="image" style="text;html=1;align=center;verticalAlign=middle;resizable=0;points=[];autosize=1;strokeColor=none;fillColor=none;fontSize=14;" parent="Tt2xpURzv-KkRXz8kbXv-1" vertex="1">
          <mxGeometry x="227.5" y="60" width="50" height="20" as="geometry" />
        </mxCell>
        <mxCell id="Tt2xpURzv-KkRXz8kbXv-23" value="company_name" style="text;html=1;align=center;verticalAlign=middle;resizable=0;points=[];autosize=1;strokeColor=none;fillColor=none;fontSize=14;" parent="Tt2xpURzv-KkRXz8kbXv-1" vertex="1">
          <mxGeometry x="192.5" y="80" width="120" height="20" as="geometry" />
        </mxCell>
        <mxCell id="Tt2xpURzv-KkRXz8kbXv-24" value="slug" style="text;html=1;align=center;verticalAlign=middle;resizable=0;points=[];autosize=1;strokeColor=none;fillColor=none;fontSize=14;" parent="Tt2xpURzv-KkRXz8kbXv-1" vertex="1">
          <mxGeometry x="232.5" y="100" width="40" height="20" as="geometry" />
        </mxCell>
        <mxCell id="Tt2xpURzv-KkRXz8kbXv-25" value="type" style="text;html=1;align=center;verticalAlign=middle;resizable=0;points=[];autosize=1;strokeColor=none;fillColor=none;fontSize=14;" parent="Tt2xpURzv-KkRXz8kbXv-1" vertex="1">
          <mxGeometry x="232.5" y="120" width="40" height="20" as="geometry" />
        </mxCell>
        <mxCell id="Tt2xpURzv-KkRXz8kbXv-26" value="status" style="text;html=1;align=center;verticalAlign=middle;resizable=0;points=[];autosize=1;strokeColor=none;fillColor=none;fontSize=14;" parent="Tt2xpURzv-KkRXz8kbXv-1" vertex="1">
          <mxGeometry x="227.5" y="140" width="50" height="20" as="geometry" />
        </mxCell>
        <mxCell id="Tt2xpURzv-KkRXz8kbXv-28" value="&lt;font style=&quot;font-size: 14px&quot;&gt;id travel_packages*&lt;/font&gt;" style="text;html=1;align=center;verticalAlign=middle;resizable=0;points=[];autosize=1;strokeColor=none;fillColor=none;fontSize=14;" parent="Tt2xpURzv-KkRXz8kbXv-1" vertex="1">
          <mxGeometry x="42.5" y="180" width="140" height="20" as="geometry" />
        </mxCell>
        <mxCell id="Tt2xpURzv-KkRXz8kbXv-29" value="&lt;font style=&quot;font-size: 14px&quot;&gt;title&lt;/font&gt;" style="text;html=1;align=center;verticalAlign=middle;resizable=0;points=[];autosize=1;strokeColor=none;fillColor=none;fontSize=14;" parent="Tt2xpURzv-KkRXz8kbXv-1" vertex="1">
          <mxGeometry x="92.5" y="200" width="40" height="20" as="geometry" />
        </mxCell>
        <mxCell id="Tt2xpURzv-KkRXz8kbXv-30" value="&lt;font style=&quot;font-size: 14px&quot;&gt;slug&lt;/font&gt;" style="text;html=1;align=center;verticalAlign=middle;resizable=0;points=[];autosize=1;strokeColor=none;fillColor=none;fontSize=14;" parent="Tt2xpURzv-KkRXz8kbXv-1" vertex="1">
          <mxGeometry x="92.5" y="220" width="40" height="20" as="geometry" />
        </mxCell>
        <mxCell id="Tt2xpURzv-KkRXz8kbXv-31" value="&lt;font style=&quot;font-size: 14px&quot;&gt;description&lt;/font&gt;" style="text;html=1;align=center;verticalAlign=middle;resizable=0;points=[];autosize=1;strokeColor=none;fillColor=none;fontSize=14;" parent="Tt2xpURzv-KkRXz8kbXv-1" vertex="1">
          <mxGeometry x="72.5" y="240" width="80" height="20" as="geometry" />
        </mxCell>
        <mxCell id="Tt2xpURzv-KkRXz8kbXv-32" value="rating" style="text;html=1;align=center;verticalAlign=middle;resizable=0;points=[];autosize=1;strokeColor=none;fillColor=none;fontSize=14;" parent="Tt2xpURzv-KkRXz8kbXv-1" vertex="1">
          <mxGeometry x="87.5" y="260" width="50" height="20" as="geometry" />
        </mxCell>
        <mxCell id="Tt2xpURzv-KkRXz8kbXv-33" value="city" style="text;html=1;align=center;verticalAlign=middle;resizable=0;points=[];autosize=1;strokeColor=none;fillColor=none;fontSize=14;" parent="Tt2xpURzv-KkRXz8kbXv-1" vertex="1">
          <mxGeometry x="92.5" y="280" width="40" height="20" as="geometry" />
        </mxCell>
        <mxCell id="Tt2xpURzv-KkRXz8kbXv-34" value="area" style="text;html=1;align=center;verticalAlign=middle;resizable=0;points=[];autosize=1;strokeColor=none;fillColor=none;fontSize=14;" parent="Tt2xpURzv-KkRXz8kbXv-1" vertex="1">
          <mxGeometry x="92.5" y="300" width="40" height="20" as="geometry" />
        </mxCell>
        <mxCell id="Tt2xpURzv-KkRXz8kbXv-35" value="country" style="text;html=1;align=center;verticalAlign=middle;resizable=0;points=[];autosize=1;strokeColor=none;fillColor=none;fontSize=14;" parent="Tt2xpURzv-KkRXz8kbXv-1" vertex="1">
          <mxGeometry x="82.5" y="320" width="60" height="20" as="geometry" />
        </mxCell>
        <mxCell id="Tt2xpURzv-KkRXz8kbXv-36" value="type" style="text;html=1;align=center;verticalAlign=middle;resizable=0;points=[];autosize=1;strokeColor=none;fillColor=none;fontSize=14;" parent="Tt2xpURzv-KkRXz8kbXv-1" vertex="1">
          <mxGeometry x="92.5" y="340" width="40" height="20" as="geometry" />
        </mxCell>
        <mxCell id="Tt2xpURzv-KkRXz8kbXv-37" value="price" style="text;html=1;align=center;verticalAlign=middle;resizable=0;points=[];autosize=1;strokeColor=none;fillColor=none;fontSize=14;" parent="Tt2xpURzv-KkRXz8kbXv-1" vertex="1">
          <mxGeometry x="87.5" y="360" width="50" height="20" as="geometry" />
        </mxCell>
        <mxCell id="Tt2xpURzv-KkRXz8kbXv-38" value="restaurant" style="text;html=1;align=center;verticalAlign=middle;resizable=0;points=[];autosize=1;strokeColor=none;fillColor=none;fontSize=14;" parent="Tt2xpURzv-KkRXz8kbXv-1" vertex="1">
          <mxGeometry x="72.5" y="380" width="80" height="20" as="geometry" />
        </mxCell>
        <mxCell id="Tt2xpURzv-KkRXz8kbXv-39" value="wifi" style="text;html=1;align=center;verticalAlign=middle;resizable=0;points=[];autosize=1;strokeColor=none;fillColor=none;fontSize=14;" parent="Tt2xpURzv-KkRXz8kbXv-1" vertex="1">
          <mxGeometry x="92.5" y="400" width="40" height="20" as="geometry" />
        </mxCell>
        <mxCell id="Tt2xpURzv-KkRXz8kbXv-40" value="elevator" style="text;html=1;align=center;verticalAlign=middle;resizable=0;points=[];autosize=1;strokeColor=none;fillColor=none;fontSize=14;" parent="Tt2xpURzv-KkRXz8kbXv-1" vertex="1">
          <mxGeometry x="77.5" y="420" width="70" height="20" as="geometry" />
        </mxCell>
        <mxCell id="Tt2xpURzv-KkRXz8kbXv-41" value="breakfast" style="text;html=1;align=center;verticalAlign=middle;resizable=0;points=[];autosize=1;strokeColor=none;fillColor=none;fontSize=14;" parent="Tt2xpURzv-KkRXz8kbXv-1" vertex="1">
          <mxGeometry x="77.5" y="440" width="70" height="20" as="geometry" />
        </mxCell>
        <mxCell id="Tt2xpURzv-KkRXz8kbXv-42" value="parking" style="text;html=1;align=center;verticalAlign=middle;resizable=0;points=[];autosize=1;strokeColor=none;fillColor=none;fontSize=14;" parent="Tt2xpURzv-KkRXz8kbXv-1" vertex="1">
          <mxGeometry x="82.5" y="460" width="60" height="20" as="geometry" />
        </mxCell>
        <mxCell id="Tt2xpURzv-KkRXz8kbXv-43" value="laundry" style="text;html=1;align=center;verticalAlign=middle;resizable=0;points=[];autosize=1;strokeColor=none;fillColor=none;fontSize=14;" parent="Tt2xpURzv-KkRXz8kbXv-1" vertex="1">
          <mxGeometry x="82.5" y="480" width="60" height="20" as="geometry" />
        </mxCell>
        <mxCell id="buCjAwo2qazxP4MjnpWk-1" value="&lt;font style=&quot;font-size: 14px&quot;&gt;id galleries*&lt;/font&gt;" style="text;html=1;align=center;verticalAlign=middle;resizable=0;points=[];autosize=1;strokeColor=none;fillColor=none;fontSize=14;" vertex="1" parent="Tt2xpURzv-KkRXz8kbXv-1">
          <mxGeometry x="207.5" y="160" width="90" height="20" as="geometry" />
        </mxCell>
        <mxCell id="buCjAwo2qazxP4MjnpWk-2" value="travel_packages_id" style="text;html=1;align=center;verticalAlign=middle;resizable=0;points=[];autosize=1;strokeColor=none;fillColor=none;fontSize=14;" vertex="1" parent="Tt2xpURzv-KkRXz8kbXv-1">
          <mxGeometry x="182.5" y="180" width="140" height="20" as="geometry" />
        </mxCell>
        <mxCell id="buCjAwo2qazxP4MjnpWk-7" value="image" style="text;html=1;align=center;verticalAlign=middle;resizable=0;points=[];autosize=1;strokeColor=none;fillColor=none;fontSize=14;" vertex="1" parent="Tt2xpURzv-KkRXz8kbXv-1">
          <mxGeometry x="227.5" y="200" width="50" height="20" as="geometry" />
        </mxCell>
        <mxCell id="buCjAwo2qazxP4MjnpWk-8" value="&lt;font style=&quot;font-size: 14px&quot;&gt;id testimonials*&lt;/font&gt;" style="text;html=1;align=center;verticalAlign=middle;resizable=0;points=[];autosize=1;strokeColor=none;fillColor=none;fontSize=14;" vertex="1" parent="Tt2xpURzv-KkRXz8kbXv-1">
          <mxGeometry x="197.5" y="220" width="110" height="20" as="geometry" />
        </mxCell>
        <mxCell id="buCjAwo2qazxP4MjnpWk-9" value="users_id" style="text;html=1;align=center;verticalAlign=middle;resizable=0;points=[];autosize=1;strokeColor=none;fillColor=none;fontSize=14;" vertex="1" parent="Tt2xpURzv-KkRXz8kbXv-1">
          <mxGeometry x="217.5" y="240" width="70" height="20" as="geometry" />
        </mxCell>
        <mxCell id="buCjAwo2qazxP4MjnpWk-10" value="travel_packages_id" style="text;html=1;align=center;verticalAlign=middle;resizable=0;points=[];autosize=1;strokeColor=none;fillColor=none;fontSize=14;" vertex="1" parent="Tt2xpURzv-KkRXz8kbXv-1">
          <mxGeometry x="182.5" y="260" width="140" height="20" as="geometry" />
        </mxCell>
        <mxCell id="buCjAwo2qazxP4MjnpWk-11" value="title" style="text;html=1;align=center;verticalAlign=middle;resizable=0;points=[];autosize=1;strokeColor=none;fillColor=none;fontSize=14;" vertex="1" parent="Tt2xpURzv-KkRXz8kbXv-1">
          <mxGeometry x="232.5" y="280" width="40" height="20" as="geometry" />
        </mxCell>
        <mxCell id="buCjAwo2qazxP4MjnpWk-12" value="description" style="text;html=1;align=center;verticalAlign=middle;resizable=0;points=[];autosize=1;strokeColor=none;fillColor=none;fontSize=14;" vertex="1" parent="Tt2xpURzv-KkRXz8kbXv-1">
          <mxGeometry x="212.5" y="300" width="80" height="20" as="geometry" />
        </mxCell>
        <mxCell id="buCjAwo2qazxP4MjnpWk-13" value="rating" style="text;html=1;align=center;verticalAlign=middle;resizable=0;points=[];autosize=1;strokeColor=none;fillColor=none;fontSize=14;" vertex="1" parent="Tt2xpURzv-KkRXz8kbXv-1">
          <mxGeometry x="227.5" y="320" width="50" height="20" as="geometry" />
        </mxCell>
        <mxCell id="buCjAwo2qazxP4MjnpWk-15" value="users_id" style="text;html=1;align=center;verticalAlign=middle;resizable=0;points=[];autosize=1;strokeColor=none;fillColor=none;fontSize=14;" vertex="1" parent="Tt2xpURzv-KkRXz8kbXv-1">
          <mxGeometry x="217.5" y="380" width="70" height="20" as="geometry" />
        </mxCell>
        <mxCell id="buCjAwo2qazxP4MjnpWk-16" value="travel_packages_id" style="text;html=1;align=center;verticalAlign=middle;resizable=0;points=[];autosize=1;strokeColor=none;fillColor=none;fontSize=14;" vertex="1" parent="Tt2xpURzv-KkRXz8kbXv-1">
          <mxGeometry x="182.5" y="360" width="140" height="20" as="geometry" />
        </mxCell>
        <mxCell id="buCjAwo2qazxP4MjnpWk-17" value="&lt;font style=&quot;font-size: 14px&quot;&gt;id transaction*&lt;/font&gt;" style="text;html=1;align=center;verticalAlign=middle;resizable=0;points=[];autosize=1;strokeColor=none;fillColor=none;fontSize=14;" vertex="1" parent="Tt2xpURzv-KkRXz8kbXv-1">
          <mxGeometry x="202.5" y="340" width="100" height="20" as="geometry" />
        </mxCell>
        <mxCell id="buCjAwo2qazxP4MjnpWk-18" value="transaction_code" style="text;html=1;align=center;verticalAlign=middle;resizable=0;points=[];autosize=1;strokeColor=none;fillColor=none;fontSize=14;" vertex="1" parent="Tt2xpURzv-KkRXz8kbXv-1">
          <mxGeometry x="192.5" y="400" width="120" height="20" as="geometry" />
        </mxCell>
        <mxCell id="buCjAwo2qazxP4MjnpWk-19" value="name" style="text;html=1;align=center;verticalAlign=middle;resizable=0;points=[];autosize=1;strokeColor=none;fillColor=none;fontSize=14;" vertex="1" parent="Tt2xpURzv-KkRXz8kbXv-1">
          <mxGeometry x="227.5" y="420" width="50" height="20" as="geometry" />
        </mxCell>
        <mxCell id="buCjAwo2qazxP4MjnpWk-20" value="email" style="text;html=1;align=center;verticalAlign=middle;resizable=0;points=[];autosize=1;strokeColor=none;fillColor=none;fontSize=14;" vertex="1" parent="Tt2xpURzv-KkRXz8kbXv-1">
          <mxGeometry x="227.5" y="440" width="50" height="20" as="geometry" />
        </mxCell>
        <mxCell id="buCjAwo2qazxP4MjnpWk-21" value="phone_number" style="text;html=1;align=center;verticalAlign=middle;resizable=0;points=[];autosize=1;strokeColor=none;fillColor=none;fontSize=14;" vertex="1" parent="Tt2xpURzv-KkRXz8kbXv-1">
          <mxGeometry x="197.5" y="460" width="110" height="20" as="geometry" />
        </mxCell>
        <mxCell id="buCjAwo2qazxP4MjnpWk-22" value="check_in" style="text;html=1;align=center;verticalAlign=middle;resizable=0;points=[];autosize=1;strokeColor=none;fillColor=none;fontSize=14;" vertex="1" parent="Tt2xpURzv-KkRXz8kbXv-1">
          <mxGeometry x="217.5" y="480" width="70" height="20" as="geometry" />
        </mxCell>
        <mxCell id="buCjAwo2qazxP4MjnpWk-23" value="check_out" style="text;html=1;align=center;verticalAlign=middle;resizable=0;points=[];autosize=1;strokeColor=none;fillColor=none;fontSize=14;" vertex="1" parent="Tt2xpURzv-KkRXz8kbXv-1">
          <mxGeometry x="212.5" y="500" width="80" height="20" as="geometry" />
        </mxCell>
        <mxCell id="buCjAwo2qazxP4MjnpWk-24" value="rooms" style="text;html=1;align=center;verticalAlign=middle;resizable=0;points=[];autosize=1;strokeColor=none;fillColor=none;fontSize=14;" vertex="1" parent="Tt2xpURzv-KkRXz8kbXv-1">
          <mxGeometry x="227.5" y="520" width="50" height="20" as="geometry" />
        </mxCell>
        <mxCell id="buCjAwo2qazxP4MjnpWk-25" value="guests" style="text;html=1;align=center;verticalAlign=middle;resizable=0;points=[];autosize=1;strokeColor=none;fillColor=none;fontSize=14;" vertex="1" parent="Tt2xpURzv-KkRXz8kbXv-1">
          <mxGeometry x="222.5" y="540" width="60" height="20" as="geometry" />
        </mxCell>
        <mxCell id="buCjAwo2qazxP4MjnpWk-26" value="type_trip" style="text;html=1;align=center;verticalAlign=middle;resizable=0;points=[];autosize=1;strokeColor=none;fillColor=none;fontSize=14;" vertex="1" parent="Tt2xpURzv-KkRXz8kbXv-1">
          <mxGeometry x="217.5" y="560" width="70" height="20" as="geometry" />
        </mxCell>
        <mxCell id="buCjAwo2qazxP4MjnpWk-27" value="transaction_total" style="text;html=1;align=center;verticalAlign=middle;resizable=0;points=[];autosize=1;strokeColor=none;fillColor=none;fontSize=14;" vertex="1" parent="Tt2xpURzv-KkRXz8kbXv-1">
          <mxGeometry x="192.5" y="580" width="120" height="20" as="geometry" />
        </mxCell>
        <mxCell id="buCjAwo2qazxP4MjnpWk-28" value="payment_type" style="text;html=1;align=center;verticalAlign=middle;resizable=0;points=[];autosize=1;strokeColor=none;fillColor=none;fontSize=14;" vertex="1" parent="Tt2xpURzv-KkRXz8kbXv-1">
          <mxGeometry x="202.5" y="600" width="100" height="20" as="geometry" />
        </mxCell>
        <mxCell id="buCjAwo2qazxP4MjnpWk-29" value="transaction_status" style="text;html=1;align=center;verticalAlign=middle;resizable=0;points=[];autosize=1;strokeColor=none;fillColor=none;fontSize=14;" vertex="1" parent="Tt2xpURzv-KkRXz8kbXv-1">
          <mxGeometry x="187.5" y="620" width="130" height="20" as="geometry" />
        </mxCell>
        <mxCell id="buCjAwo2qazxP4MjnpWk-30" value="users_id" style="text;html=1;align=center;verticalAlign=middle;resizable=0;points=[];autosize=1;strokeColor=none;fillColor=none;fontSize=14;" vertex="1" parent="Tt2xpURzv-KkRXz8kbXv-1">
          <mxGeometry x="77.5" y="540" width="70" height="20" as="geometry" />
        </mxCell>
        <mxCell id="buCjAwo2qazxP4MjnpWk-31" value="transportations_id" style="text;html=1;align=center;verticalAlign=middle;resizable=0;points=[];autosize=1;strokeColor=none;fillColor=none;fontSize=14;" vertex="1" parent="Tt2xpURzv-KkRXz8kbXv-1">
          <mxGeometry x="47.5" y="520" width="130" height="20" as="geometry" />
        </mxCell>
        <mxCell id="buCjAwo2qazxP4MjnpWk-32" value="&lt;font style=&quot;font-size: 14px&quot;&gt;id transaction_transportations*&lt;/font&gt;" style="text;html=1;align=center;verticalAlign=middle;resizable=0;points=[];autosize=1;strokeColor=none;fillColor=none;fontSize=14;" vertex="1" parent="Tt2xpURzv-KkRXz8kbXv-1">
          <mxGeometry x="12.5" y="500" width="200" height="20" as="geometry" />
        </mxCell>
        <mxCell id="buCjAwo2qazxP4MjnpWk-33" value="transaction_code" style="text;html=1;align=center;verticalAlign=middle;resizable=0;points=[];autosize=1;strokeColor=none;fillColor=none;fontSize=14;" vertex="1" parent="Tt2xpURzv-KkRXz8kbXv-1">
          <mxGeometry x="52.5" y="560" width="120" height="20" as="geometry" />
        </mxCell>
        <mxCell id="buCjAwo2qazxP4MjnpWk-34" value="name" style="text;html=1;align=center;verticalAlign=middle;resizable=0;points=[];autosize=1;strokeColor=none;fillColor=none;fontSize=14;" vertex="1" parent="Tt2xpURzv-KkRXz8kbXv-1">
          <mxGeometry x="87.5" y="580" width="50" height="20" as="geometry" />
        </mxCell>
        <mxCell id="buCjAwo2qazxP4MjnpWk-35" value="email" style="text;html=1;align=center;verticalAlign=middle;resizable=0;points=[];autosize=1;strokeColor=none;fillColor=none;fontSize=14;" vertex="1" parent="Tt2xpURzv-KkRXz8kbXv-1">
          <mxGeometry x="87.5" y="600" width="50" height="20" as="geometry" />
        </mxCell>
        <mxCell id="buCjAwo2qazxP4MjnpWk-36" value="phone_number" style="text;html=1;align=center;verticalAlign=middle;resizable=0;points=[];autosize=1;strokeColor=none;fillColor=none;fontSize=14;" vertex="1" parent="Tt2xpURzv-KkRXz8kbXv-1">
          <mxGeometry x="57.5" y="620" width="110" height="20" as="geometry" />
        </mxCell>
        <mxCell id="buCjAwo2qazxP4MjnpWk-37" value="from" style="text;html=1;align=center;verticalAlign=middle;resizable=0;points=[];autosize=1;strokeColor=none;fillColor=none;fontSize=14;" vertex="1" parent="Tt2xpURzv-KkRXz8kbXv-1">
          <mxGeometry x="92.5" y="640" width="40" height="20" as="geometry" />
        </mxCell>
        <mxCell id="buCjAwo2qazxP4MjnpWk-38" value="to" style="text;html=1;align=center;verticalAlign=middle;resizable=0;points=[];autosize=1;strokeColor=none;fillColor=none;fontSize=14;" vertex="1" parent="Tt2xpURzv-KkRXz8kbXv-1">
          <mxGeometry x="97.5" y="660" width="30" height="20" as="geometry" />
        </mxCell>
        <mxCell id="buCjAwo2qazxP4MjnpWk-39" value="guests" style="text;html=1;align=center;verticalAlign=middle;resizable=0;points=[];autosize=1;strokeColor=none;fillColor=none;fontSize=14;" vertex="1" parent="Tt2xpURzv-KkRXz8kbXv-1">
          <mxGeometry x="82.5" y="680" width="60" height="20" as="geometry" />
        </mxCell>
        <mxCell id="buCjAwo2qazxP4MjnpWk-40" value="departure_date" style="text;html=1;align=center;verticalAlign=middle;resizable=0;points=[];autosize=1;strokeColor=none;fillColor=none;fontSize=14;" vertex="1" parent="Tt2xpURzv-KkRXz8kbXv-1">
          <mxGeometry x="57.5" y="700" width="110" height="20" as="geometry" />
        </mxCell>
        <mxCell id="buCjAwo2qazxP4MjnpWk-41" value="departure_time" style="text;html=1;align=center;verticalAlign=middle;resizable=0;points=[];autosize=1;strokeColor=none;fillColor=none;fontSize=14;" vertex="1" parent="Tt2xpURzv-KkRXz8kbXv-1">
          <mxGeometry x="57.5" y="720" width="110" height="20" as="geometry" />
        </mxCell>
        <mxCell id="buCjAwo2qazxP4MjnpWk-42" value="transaction_total" style="text;html=1;align=center;verticalAlign=middle;resizable=0;points=[];autosize=1;strokeColor=none;fillColor=none;fontSize=14;" vertex="1" parent="Tt2xpURzv-KkRXz8kbXv-1">
          <mxGeometry x="52.5" y="760" width="120" height="20" as="geometry" />
        </mxCell>
        <mxCell id="buCjAwo2qazxP4MjnpWk-43" value="payment_type" style="text;html=1;align=center;verticalAlign=middle;resizable=0;points=[];autosize=1;strokeColor=none;fillColor=none;fontSize=14;" vertex="1" parent="Tt2xpURzv-KkRXz8kbXv-1">
          <mxGeometry x="62.5" y="780" width="100" height="20" as="geometry" />
        </mxCell>
        <mxCell id="buCjAwo2qazxP4MjnpWk-44" value="transaction_status" style="text;html=1;align=center;verticalAlign=middle;resizable=0;points=[];autosize=1;strokeColor=none;fillColor=none;fontSize=14;" vertex="1" parent="Tt2xpURzv-KkRXz8kbXv-1">
          <mxGeometry x="47.5" y="800" width="130" height="20" as="geometry" />
        </mxCell>
        <mxCell id="buCjAwo2qazxP4MjnpWk-45" value="class" style="text;html=1;align=center;verticalAlign=middle;resizable=0;points=[];autosize=1;strokeColor=none;fillColor=none;fontSize=14;" vertex="1" parent="Tt2xpURzv-KkRXz8kbXv-1">
          <mxGeometry x="87.5" y="740" width="50" height="20" as="geometry" />
        </mxCell>
      </root>
    </mxGraphModel>
  </diagram>
</mxfile>
